<?xml version="1.0" encoding="UTF-8" standalone="no"?>
<!DOCTYPE svg PUBLIC "-//W3C//DTD SVG 1.1//EN"
 "http://www.w3.org/Graphics/SVG/1.1/DTD/svg11.dtd">
<!-- Generated by graphviz version 2.50.0 (20211204.2007)
 -->
<!-- Title: dependency&#45;cruiser output Pages: 1 -->
<svg width="649pt" height="320pt"
 viewBox="0.00 0.00 649.00 320.00" xmlns="http://www.w3.org/2000/svg" xmlns:xlink="http://www.w3.org/1999/xlink">
<g id="graph0" class="graph" transform="scale(1 1) rotate(0) translate(4 316)">
<title>dependency&#45;cruiser output</title>
<polygon fill="white" stroke="transparent" points="-4,4 -4,-316 645,-316 645,4 -4,4"/>
<g id="clust1" class="cluster">
<title>cluster_core</title>
<path fill="#ffffff" stroke="black" stroke-width="2" d="M20,-8C20,-8 621,-8 621,-8 627,-8 633,-14 633,-20 633,-20 633,-292 633,-292 633,-298 627,-304 621,-304 621,-304 20,-304 20,-304 14,-304 8,-298 8,-292 8,-292 8,-20 8,-20 8,-14 14,-8 20,-8"/>
<text text-anchor="middle" x="320.5" y="-292.8" font-family="Helvetica,sans-Serif" font-weight="bold" font-size="9.00">core</text>
</g>
<g id="clust2" class="cluster">
<title>cluster_core/decorators</title>
<path fill="#ffffff" stroke="black" stroke-width="2" d="M277,-16C277,-16 334,-16 334,-16 340,-16 346,-22 346,-28 346,-28 346,-116 346,-116 346,-122 340,-128 334,-128 334,-128 277,-128 277,-128 271,-128 265,-122 265,-116 265,-116 265,-28 265,-28 265,-22 271,-16 277,-16"/>
<text text-anchor="middle" x="305.5" y="-116.8" font-family="Helvetica,sans-Serif" font-weight="bold" font-size="9.00">decorators</text>
</g>
<g id="clust3" class="cluster">
<title>cluster_core/internals</title>
<path fill="#ffffff" stroke="black" stroke-width="2" d="M116,-136C116,-136 342,-136 342,-136 348,-136 354,-142 354,-148 354,-148 354,-266 354,-266 354,-272 348,-278 342,-278 342,-278 116,-278 116,-278 110,-278 104,-272 104,-266 104,-266 104,-148 104,-148 104,-142 110,-136 116,-136"/>
<text text-anchor="middle" x="229" y="-266.8" font-family="Helvetica,sans-Serif" font-weight="bold" font-size="9.00">internals</text>
</g>
<g id="clust4" class="cluster">
<title>cluster_core/internals/strategies</title>
<path fill="#ffffff" stroke="black" stroke-width="2" d="M193,-200C193,-200 334,-200 334,-200 340,-200 346,-206 346,-212 346,-212 346,-240 346,-240 346,-246 340,-252 334,-252 334,-252 193,-252 193,-252 187,-252 181,-246 181,-240 181,-240 181,-212 181,-212 181,-206 187,-200 193,-200"/>
<text text-anchor="middle" x="263.5" y="-240.8" font-family="Helvetica,sans-Serif" font-weight="bold" font-size="9.00">strategies</text>
</g>
<g id="clust5" class="cluster">
<title>cluster_core/metadata</title>
<path fill="#ffffff" stroke="black" stroke-width="2" d="M374,-24C374,-24 613,-24 613,-24 619,-24 625,-30 625,-36 625,-36 625,-258 625,-258 625,-264 619,-270 613,-270 613,-270 374,-270 374,-270 368,-270 362,-264 362,-258 362,-258 362,-36 362,-36 362,-30 368,-24 374,-24"/>
<text text-anchor="middle" x="493.5" y="-258.8" font-family="Helvetica,sans-Serif" font-weight="bold" font-size="9.00">metadata</text>
</g>
<g id="clust6" class="cluster">
<title>cluster_core/reflection</title>
<path fill="#ffffff" stroke="black" stroke-width="2" d="M28.5,-226C28.5,-226 83.5,-226 83.5,-226 89.5,-226 95.5,-232 95.5,-238 95.5,-238 95.5,-266 95.5,-266 95.5,-272 89.5,-278 83.5,-278 83.5,-278 28.5,-278 28.5,-278 22.5,-278 16.5,-272 16.5,-266 16.5,-266 16.5,-238 16.5,-238 16.5,-232 22.5,-226 28.5,-226"/>
<text text-anchor="middle" x="56" y="-266.8" font-family="Helvetica,sans-Serif" font-weight="bold" font-size="9.00">reflection</text>
</g>
<g id="clust7" class="cluster">
<title>cluster_core/types</title>
<path fill="#ffffff" stroke="black" stroke-width="2" d="M28,-46C28,-46 84,-46 84,-46 90,-46 96,-52 96,-58 96,-58 96,-206 96,-206 96,-212 90,-218 84,-218 84,-218 28,-218 28,-218 22,-218 16,-212 16,-206 16,-206 16,-58 16,-58 16,-52 22,-46 28,-46"/>
<text text-anchor="middle" x="56" y="-206.8" font-family="Helvetica,sans-Serif" font-weight="bold" font-size="9.00">types</text>
</g>
<!-- core/context.ts -->
<g id="node1" class="node">
<title>core/context.ts</title>
<g id="a_node1"><a xlink:href="core/context.ts" xlink:title="context.ts">
<path fill="#ddfeff" stroke="black" d="M77.5,-38C77.5,-38 34.5,-38 34.5,-38 31.5,-38 28.5,-35 28.5,-32 28.5,-32 28.5,-26 28.5,-26 28.5,-23 31.5,-20 34.5,-20 34.5,-20 77.5,-20 77.5,-20 80.5,-20 83.5,-23 83.5,-26 83.5,-26 83.5,-32 83.5,-32 83.5,-35 80.5,-38 77.5,-38"/>
<text text-anchor="start" x="36.5" y="-26.8" font-family="Helvetica,sans-Serif" font-size="9.00">context.ts</text>
</a>
</g>
</g>
<!-- core/internals/compiler.ts -->
<g id="node2" class="node">
<title>core/internals/compiler.ts</title>
<g id="a_node2"><a xlink:href="core/internals/compiler.ts" xlink:title="compiler.ts">
<path fill="#ddfeff" stroke="black" d="M167,-192C167,-192 118,-192 118,-192 115,-192 112,-189 112,-186 112,-186 112,-180 112,-180 112,-177 115,-174 118,-174 118,-174 167,-174 167,-174 170,-174 173,-177 173,-180 173,-180 173,-186 173,-186 173,-189 170,-192 167,-192"/>
<text text-anchor="start" x="120" y="-180.8" font-family="Helvetica,sans-Serif" font-size="9.00">compiler.ts</text>
</a>
</g>
</g>
<!-- core/context.ts&#45;&gt;core/internals/compiler.ts -->
<g id="edge1" class="edge">
<title>core/context.ts&#45;&gt;core/internals/compiler.ts</title>
<path fill="none" stroke="#000000" stroke-width="2" stroke-opacity="0.200000" d="M83.7,-34.88C88.25,-36.86 92.59,-39.49 96,-43 130.1,-78.15 138.64,-139.13 140.78,-167.57"/>
<polygon fill="#000000" fill-opacity="0.200000" stroke="#000000" stroke-width="2" stroke-opacity="0.200000" points="138.7,-167.9 141.19,-173.75 142.89,-167.63 138.7,-167.9"/>
</g>
<!-- core/internals/linker.ts -->
<g id="node3" class="node">
<title>core/internals/linker.ts</title>
<g id="a_node3"><a xlink:href="core/internals/linker.ts" xlink:title="linker.ts">
<path fill="#ddfeff" stroke="black" d="M163.5,-237C163.5,-237 121.5,-237 121.5,-237 118.5,-237 115.5,-234 115.5,-231 115.5,-231 115.5,-225 115.5,-225 115.5,-222 118.5,-219 121.5,-219 121.5,-219 163.5,-219 163.5,-219 166.5,-219 169.5,-222 169.5,-225 169.5,-225 169.5,-231 169.5,-231 169.5,-234 166.5,-237 163.5,-237"/>
<text text-anchor="start" x="126.5" y="-225.8" font-family="Helvetica,sans-Serif" font-size="9.00">linker.ts</text>
</a>
</g>
</g>
<!-- core/context.ts&#45;&gt;core/internals/linker.ts -->
<g id="edge2" class="edge">
<title>core/context.ts&#45;&gt;core/internals/linker.ts</title>
<path fill="none" stroke="#000000" stroke-width="2" stroke-opacity="0.200000" d="M83.69,-33.86C88.48,-35.92 92.91,-38.84 96,-43 116.57,-70.69 88.26,-167.31 104,-198 107.51,-204.84 113.35,-210.64 119.39,-215.27"/>
<polygon fill="#000000" fill-opacity="0.200000" stroke="#000000" stroke-width="2" stroke-opacity="0.200000" points="118.36,-217.11 124.47,-218.88 120.8,-213.69 118.36,-217.11"/>
</g>
<!-- core/internals/provider.ts -->
<g id="node8" class="node">
<title>core/internals/provider.ts</title>
<g id="a_node8"><a xlink:href="core/internals/provider.ts" xlink:title="provider.ts">
<path fill="#ddfeff" stroke="black" d="M246.5,-162C246.5,-162 199.5,-162 199.5,-162 196.5,-162 193.5,-159 193.5,-156 193.5,-156 193.5,-150 193.5,-150 193.5,-147 196.5,-144 199.5,-144 199.5,-144 246.5,-144 246.5,-144 249.5,-144 252.5,-147 252.5,-150 252.5,-150 252.5,-156 252.5,-156 252.5,-159 249.5,-162 246.5,-162"/>
<text text-anchor="start" x="201.5" y="-150.8" font-family="Helvetica,sans-Serif" font-size="9.00">provider.ts</text>
</a>
</g>
</g>
<!-- core/internals/compiler.ts&#45;&gt;core/internals/provider.ts -->
<g id="edge6" class="edge">
<title>core/internals/compiler.ts&#45;&gt;core/internals/provider.ts</title>
<path fill="none" stroke="#000000" stroke-width="2" stroke-opacity="0.200000" d="M166.06,-173.85C170.98,-171.89 176.15,-169.86 181,-168 184.19,-166.78 187.52,-165.53 190.85,-164.29"/>
<polygon fill="#000000" fill-opacity="0.200000" stroke="#000000" stroke-width="2" stroke-opacity="0.200000" points="191.9,-166.14 196.8,-162.08 190.45,-162.2 191.9,-166.14"/>
</g>
<!-- core/internals/registry.ts -->
<g id="node9" class="node">
<title>core/internals/registry.ts</title>
<g id="a_node9"><a xlink:href="core/internals/registry.ts" xlink:title="registry.ts">
<path fill="#ddfeff" stroke="black" d="M245,-192C245,-192 201,-192 201,-192 198,-192 195,-189 195,-186 195,-186 195,-180 195,-180 195,-177 198,-174 201,-174 201,-174 245,-174 245,-174 248,-174 251,-177 251,-180 251,-180 251,-186 251,-186 251,-189 248,-192 245,-192"/>
<text text-anchor="start" x="203" y="-180.8" font-family="Helvetica,sans-Serif" font-size="9.00">registry.ts</text>
</a>
</g>
</g>
<!-- core/internals/compiler.ts&#45;&gt;core/internals/registry.ts -->
<g id="edge7" class="edge">
<title>core/internals/compiler.ts&#45;&gt;core/internals/registry.ts</title>
<path fill="none" stroke="#000000" stroke-width="2" stroke-opacity="0.200000" d="M173.18,-183C178.3,-183 183.64,-183 188.85,-183"/>
<polygon fill="#000000" fill-opacity="0.200000" stroke="#000000" stroke-width="2" stroke-opacity="0.200000" points="188.86,-185.1 194.86,-183 188.86,-180.9 188.86,-185.1"/>
</g>
<!-- core/internals/strategies/loose&#45;host.ts -->
<g id="node10" class="node">
<title>core/internals/strategies/loose&#45;host.ts</title>
<g id="a_node10"><a xlink:href="core/internals/strategies/loose-host.ts" xlink:title="loose&#45;host.ts">
<path fill="#ddfeff" stroke="black" d="M251,-226C251,-226 195,-226 195,-226 192,-226 189,-223 189,-220 189,-220 189,-214 189,-214 189,-211 192,-208 195,-208 195,-208 251,-208 251,-208 254,-208 257,-211 257,-214 257,-214 257,-220 257,-220 257,-223 254,-226 251,-226"/>
<text text-anchor="start" x="197" y="-214.8" font-family="Helvetica,sans-Serif" font-size="9.00">loose&#45;host.ts</text>
</a>
</g>
</g>
<!-- core/internals/compiler.ts&#45;&gt;core/internals/strategies/loose&#45;host.ts -->
<g id="edge8" class="edge">
<title>core/internals/compiler.ts&#45;&gt;core/internals/strategies/loose&#45;host.ts</title>
<path fill="none" stroke="#000000" stroke-width="2" stroke-opacity="0.200000" d="M158.11,-192.09C164.9,-196.08 173.19,-200.62 181,-204 182.38,-204.6 183.79,-205.18 185.23,-205.75"/>
<polygon fill="#000000" fill-opacity="0.200000" stroke="#000000" stroke-width="2" stroke-opacity="0.200000" points="184.5,-207.72 190.86,-207.86 185.98,-203.79 184.5,-207.72"/>
</g>
<!-- core/internals/strategies/strict&#45;host.ts -->
<g id="node11" class="node">
<title>core/internals/strategies/strict&#45;host.ts</title>
<g id="a_node11"><a xlink:href="core/internals/strategies/strict-host.ts" xlink:title="strict&#45;host.ts">
<path fill="#ddfeff" stroke="black" d="M332,-226C332,-226 279,-226 279,-226 276,-226 273,-223 273,-220 273,-220 273,-214 273,-214 273,-211 276,-208 279,-208 279,-208 332,-208 332,-208 335,-208 338,-211 338,-214 338,-214 338,-220 338,-220 338,-223 335,-226 332,-226"/>
<text text-anchor="start" x="281" y="-214.8" font-family="Helvetica,sans-Serif" font-size="9.00">strict&#45;host.ts</text>
</a>
</g>
</g>
<!-- core/internals/compiler.ts&#45;&gt;core/internals/strategies/strict&#45;host.ts -->
<g id="edge9" class="edge">
<title>core/internals/compiler.ts&#45;&gt;core/internals/strategies/strict&#45;host.ts</title>
<path fill="none" stroke="#000000" stroke-width="2" stroke-opacity="0.200000" d="M154.36,-192.16C160.44,-197.72 167.82,-205.22 173,-213 178.08,-220.62 173.37,-226.93 181,-232 209.14,-250.68 223.62,-237.15 257,-232 258.77,-231.73 264.36,-230.06 271.13,-227.93"/>
<polygon fill="#000000" fill-opacity="0.200000" stroke="#000000" stroke-width="2" stroke-opacity="0.200000" points="271.94,-229.88 277.02,-226.05 270.67,-225.87 271.94,-229.88"/>
</g>
<!-- core/metadata/mod.ts -->
<g id="node5" class="node">
<title>core/metadata/mod.ts</title>
<g id="a_node5"><a xlink:href="core/metadata/mod.ts" xlink:title="mod.ts">
<path fill="#ddfeff" stroke="red" d="M418,-139C418,-139 376,-139 376,-139 373,-139 370,-136 370,-133 370,-133 370,-127 370,-127 370,-124 373,-121 376,-121 376,-121 418,-121 418,-121 421,-121 424,-124 424,-127 424,-127 424,-133 424,-133 424,-136 421,-139 418,-139"/>
<text text-anchor="start" x="383" y="-127.8" font-family="Helvetica,sans-Serif" font-size="9.00" fill="red">mod.ts</text>
</a>
</g>
</g>
<!-- core/internals/linker.ts&#45;&gt;core/metadata/mod.ts -->
<g id="edge10" class="edge">
<title>core/internals/linker.ts&#45;&gt;core/metadata/mod.ts</title>
<path fill="none" stroke="#000000" stroke-width="2" stroke-opacity="0.200000" d="M153.15,-237.17C160.26,-243.34 170.49,-251.05 181,-255 253.05,-282.08 291.92,-308.5 354,-263 391.61,-235.44 396.4,-174.09 396.47,-145.38"/>
<polygon fill="#000000" fill-opacity="0.200000" stroke="#000000" stroke-width="2" stroke-opacity="0.200000" points="398.57,-145.11 396.41,-139.13 394.37,-145.15 398.57,-145.11"/>
</g>
<!-- core/decorators/inject.ts -->
<g id="node4" class="node">
<title>core/decorators/inject.ts</title>
<g id="a_node4"><a xlink:href="core/decorators/inject.ts" xlink:title="inject.ts">
<path fill="#ddfeff" stroke="black" d="M326.5,-102C326.5,-102 284.5,-102 284.5,-102 281.5,-102 278.5,-99 278.5,-96 278.5,-96 278.5,-90 278.5,-90 278.5,-87 281.5,-84 284.5,-84 284.5,-84 326.5,-84 326.5,-84 329.5,-84 332.5,-87 332.5,-90 332.5,-90 332.5,-96 332.5,-96 332.5,-99 329.5,-102 326.5,-102"/>
<text text-anchor="start" x="290" y="-90.8" font-family="Helvetica,sans-Serif" font-size="9.00">inject.ts</text>
</a>
</g>
</g>
<!-- core/decorators/inject.ts&#45;&gt;core/metadata/mod.ts -->
<g id="edge3" class="edge">
<title>core/decorators/inject.ts&#45;&gt;core/metadata/mod.ts</title>
<path fill="none" stroke="#000000" stroke-width="2" stroke-opacity="0.200000" d="M328.62,-102.15C340.65,-107.12 355.65,-113.32 368.43,-118.6"/>
<polygon fill="#000000" fill-opacity="0.200000" stroke="#000000" stroke-width="2" stroke-opacity="0.200000" points="367.78,-120.61 374.13,-120.96 369.39,-116.73 367.78,-120.61"/>
</g>
<!-- core/metadata/add&#45;param.ts -->
<g id="node12" class="node">
<title>core/metadata/add&#45;param.ts</title>
<g id="a_node12"><a xlink:href="core/metadata/add-param.ts" xlink:title="add&#45;param.ts">
<path fill="#ddfeff" stroke="black" d="M523,-50C523,-50 464,-50 464,-50 461,-50 458,-47 458,-44 458,-44 458,-38 458,-38 458,-35 461,-32 464,-32 464,-32 523,-32 523,-32 526,-32 529,-35 529,-38 529,-38 529,-44 529,-44 529,-47 526,-50 523,-50"/>
<text text-anchor="start" x="466" y="-38.8" font-family="Helvetica,sans-Serif" font-size="9.00">add&#45;param.ts</text>
</a>
</g>
</g>
<!-- core/metadata/mod.ts&#45;&gt;core/metadata/add&#45;param.ts -->
<g id="edge19" class="edge">
<title>core/metadata/mod.ts&#45;&gt;core/metadata/add&#45;param.ts</title>
<path fill="none" stroke="#000000" stroke-width="2" stroke-opacity="0.200000" d="M400.63,-120.72C405.39,-105.6 416.84,-75.67 437,-59 441.41,-55.35 446.59,-52.43 451.97,-50.11"/>
<polygon fill="#000000" fill-opacity="0.200000" stroke="#000000" stroke-width="2" stroke-opacity="0.200000" points="453.03,-51.94 457.86,-47.8 451.51,-48.03 453.03,-51.94"/>
</g>
<!-- core/metadata/consts.ts -->
<g id="node13" class="node">
<title>core/metadata/consts.ts</title>
<g id="a_node13"><a xlink:href="core/metadata/consts.ts" xlink:title="consts.ts">
<path fill="#ddfeff" stroke="black" d="M611,-139C611,-139 569,-139 569,-139 566,-139 563,-136 563,-133 563,-133 563,-127 563,-127 563,-124 566,-121 569,-121 569,-121 611,-121 611,-121 614,-121 617,-124 617,-127 617,-127 617,-133 617,-133 617,-136 614,-139 611,-139"/>
<text text-anchor="start" x="572" y="-127.8" font-family="Helvetica,sans-Serif" font-size="9.00">consts.ts</text>
</a>
</g>
</g>
<!-- core/metadata/mod.ts&#45;&gt;core/metadata/consts.ts -->
<g id="edge20" class="edge">
<title>core/metadata/mod.ts&#45;&gt;core/metadata/consts.ts</title>
<path fill="none" stroke="#000000" stroke-width="2" stroke-opacity="0.200000" d="M400.91,-120.56C405.8,-106.56 417.13,-80.79 437,-70 459.07,-58.02 527.93,-58.02 550,-70 567.39,-79.44 578.24,-100.35 583.95,-114.81"/>
<polygon fill="#000000" fill-opacity="0.200000" stroke="#000000" stroke-width="2" stroke-opacity="0.200000" points="582.03,-115.67 586.09,-120.56 585.97,-114.21 582.03,-115.67"/>
</g>
<!-- core/metadata/get&#45;ctr&#45;params.ts -->
<g id="node14" class="node">
<title>core/metadata/get&#45;ctr&#45;params.ts</title>
<g id="a_node14"><a xlink:href="core/metadata/get-ctr-params.ts" xlink:title="get&#45;ctr&#45;params.ts">
<path fill="#ddfeff" stroke="black" d="M530,-94C530,-94 457,-94 457,-94 454,-94 451,-91 451,-88 451,-88 451,-82 451,-82 451,-79 454,-76 457,-76 457,-76 530,-76 530,-76 533,-76 536,-79 536,-82 536,-82 536,-88 536,-88 536,-91 533,-94 530,-94"/>
<text text-anchor="start" x="459" y="-82.8" font-family="Helvetica,sans-Serif" font-size="9.00">get&#45;ctr&#45;params.ts</text>
</a>
</g>
</g>
<!-- core/metadata/mod.ts&#45;&gt;core/metadata/get&#45;ctr&#45;params.ts -->
<g id="edge21" class="edge">
<title>core/metadata/mod.ts&#45;&gt;core/metadata/get&#45;ctr&#45;params.ts</title>
<path fill="none" stroke="#000000" stroke-width="2" stroke-opacity="0.200000" d="M407.53,-120.93C415.01,-114.27 425.98,-105.46 437,-100 439.91,-98.56 442.97,-97.24 446.1,-96.04"/>
<polygon fill="#000000" fill-opacity="0.200000" stroke="#000000" stroke-width="2" stroke-opacity="0.200000" points="446.86,-98 451.8,-94.01 445.44,-94.05 446.86,-98"/>
</g>
<!-- core/metadata/get&#45;injectable.ts -->
<g id="node15" class="node">
<title>core/metadata/get&#45;injectable.ts</title>
<g id="a_node15"><a xlink:href="core/metadata/get-injectable.ts" xlink:title="get&#45;injectable.ts">
<path fill="#ddfeff" stroke="black" d="M528,-124C528,-124 459,-124 459,-124 456,-124 453,-121 453,-118 453,-118 453,-112 453,-112 453,-109 456,-106 459,-106 459,-106 528,-106 528,-106 531,-106 534,-109 534,-112 534,-112 534,-118 534,-118 534,-121 531,-124 528,-124"/>
<text text-anchor="start" x="461" y="-112.8" font-family="Helvetica,sans-Serif" font-size="9.00">get&#45;injectable.ts</text>
</a>
</g>
</g>
<!-- core/metadata/mod.ts&#45;&gt;core/metadata/get&#45;injectable.ts -->
<g id="edge22" class="edge">
<title>core/metadata/mod.ts&#45;&gt;core/metadata/get&#45;injectable.ts</title>
<path fill="none" stroke="#000000" stroke-width="2" stroke-opacity="0.200000" d="M424.07,-125.86C431.13,-124.74 438.97,-123.5 446.76,-122.26"/>
<polygon fill="#000000" fill-opacity="0.200000" stroke="#000000" stroke-width="2" stroke-opacity="0.200000" points="447.1,-124.33 452.7,-121.32 446.44,-120.18 447.1,-124.33"/>
</g>
<!-- core/metadata/get&#45;injected&#45;params.ts -->
<g id="node16" class="node">
<title>core/metadata/get&#45;injected&#45;params.ts</title>
<g id="a_node16"><a xlink:href="core/metadata/get-injected-params.ts" xlink:title="get&#45;injected&#45;params.ts">
<path fill="#ddfeff" stroke="black" d="M541,-154C541,-154 446,-154 446,-154 443,-154 440,-151 440,-148 440,-148 440,-142 440,-142 440,-139 443,-136 446,-136 446,-136 541,-136 541,-136 544,-136 547,-139 547,-142 547,-142 547,-148 547,-148 547,-151 544,-154 541,-154"/>
<text text-anchor="start" x="448" y="-142.8" font-family="Helvetica,sans-Serif" font-size="9.00">get&#45;injected&#45;params.ts</text>
</a>
</g>
</g>
<!-- core/metadata/mod.ts&#45;&gt;core/metadata/get&#45;injected&#45;params.ts -->
<g id="edge23" class="edge">
<title>core/metadata/mod.ts&#45;&gt;core/metadata/get&#45;injected&#45;params.ts</title>
<path fill="none" stroke="#000000" stroke-width="2" stroke-opacity="0.200000" d="M424.07,-134.14C427.15,-134.63 430.37,-135.14 433.67,-135.66"/>
<polygon fill="#000000" fill-opacity="0.200000" stroke="#000000" stroke-width="2" stroke-opacity="0.200000" points="433.44,-137.75 439.69,-136.62 434.1,-133.6 433.44,-137.75"/>
</g>
<!-- core/metadata/get&#45;module&#45;definition.ts -->
<g id="node17" class="node">
<title>core/metadata/get&#45;module&#45;definition.ts</title>
<g id="a_node17"><a xlink:href="core/metadata/get-module-definition.ts" xlink:title="get&#45;module&#45;definition.ts">
<path fill="#ddfeff" stroke="black" d="M544,-184C544,-184 443,-184 443,-184 440,-184 437,-181 437,-178 437,-178 437,-172 437,-172 437,-169 440,-166 443,-166 443,-166 544,-166 544,-166 547,-166 550,-169 550,-172 550,-172 550,-178 550,-178 550,-181 547,-184 544,-184"/>
<text text-anchor="start" x="445" y="-172.8" font-family="Helvetica,sans-Serif" font-size="9.00">get&#45;module&#45;definition.ts</text>
</a>
</g>
</g>
<!-- core/metadata/mod.ts&#45;&gt;core/metadata/get&#45;module&#45;definition.ts -->
<g id="edge24" class="edge">
<title>core/metadata/mod.ts&#45;&gt;core/metadata/get&#45;module&#45;definition.ts</title>
<path fill="none" stroke="#000000" stroke-width="2" stroke-opacity="0.200000" d="M407.53,-139.07C415.01,-145.73 425.98,-154.54 437,-160 439.91,-161.44 442.97,-162.76 446.1,-163.96"/>
<polygon fill="#000000" fill-opacity="0.200000" stroke="#000000" stroke-width="2" stroke-opacity="0.200000" points="445.44,-165.95 451.8,-165.99 446.86,-162 445.44,-165.95"/>
</g>
<!-- core/metadata/set&#45;injectable.ts -->
<g id="node18" class="node">
<title>core/metadata/set&#45;injectable.ts</title>
<g id="a_node18"><a xlink:href="core/metadata/set-injectable.ts" xlink:title="set&#45;injectable.ts">
<path fill="#ddfeff" stroke="black" d="M527.5,-214C527.5,-214 459.5,-214 459.5,-214 456.5,-214 453.5,-211 453.5,-208 453.5,-208 453.5,-202 453.5,-202 453.5,-199 456.5,-196 459.5,-196 459.5,-196 527.5,-196 527.5,-196 530.5,-196 533.5,-199 533.5,-202 533.5,-202 533.5,-208 533.5,-208 533.5,-211 530.5,-214 527.5,-214"/>
<text text-anchor="start" x="461.5" y="-202.8" font-family="Helvetica,sans-Serif" font-size="9.00">set&#45;injectable.ts</text>
</a>
</g>
</g>
<!-- core/metadata/mod.ts&#45;&gt;core/metadata/set&#45;injectable.ts -->
<g id="edge25" class="edge">
<title>core/metadata/mod.ts&#45;&gt;core/metadata/set&#45;injectable.ts</title>
<path fill="none" stroke="#000000" stroke-width="2" stroke-opacity="0.200000" d="M401.49,-139.24C406.98,-152.52 418.92,-176.84 437,-190 440.25,-192.37 443.86,-194.36 447.62,-196.04"/>
<polygon fill="#000000" fill-opacity="0.200000" stroke="#000000" stroke-width="2" stroke-opacity="0.200000" points="446.88,-198.01 453.23,-198.28 448.44,-194.11 446.88,-198.01"/>
</g>
<!-- core/metadata/set&#45;module&#45;definition.ts -->
<g id="node19" class="node">
<title>core/metadata/set&#45;module&#45;definition.ts</title>
<g id="a_node19"><a xlink:href="core/metadata/set-module-definition.ts" xlink:title="set&#45;module&#45;definition.ts">
<path fill="#ddfeff" stroke="black" d="M543.5,-244C543.5,-244 443.5,-244 443.5,-244 440.5,-244 437.5,-241 437.5,-238 437.5,-238 437.5,-232 437.5,-232 437.5,-229 440.5,-226 443.5,-226 443.5,-226 543.5,-226 543.5,-226 546.5,-226 549.5,-229 549.5,-232 549.5,-232 549.5,-238 549.5,-238 549.5,-241 546.5,-244 543.5,-244"/>
<text text-anchor="start" x="445.5" y="-232.8" font-family="Helvetica,sans-Serif" font-size="9.00">set&#45;module&#45;definition.ts</text>
</a>
</g>
</g>
<!-- core/metadata/mod.ts&#45;&gt;core/metadata/set&#45;module&#45;definition.ts -->
<g id="edge26" class="edge">
<title>core/metadata/mod.ts&#45;&gt;core/metadata/set&#45;module&#45;definition.ts</title>
<path fill="none" stroke="#000000" stroke-width="2" stroke-opacity="0.200000" d="M399.31,-139.2C402.4,-157.43 411.88,-198.28 437,-220 438.07,-220.93 439.2,-221.8 440.37,-222.62"/>
<polygon fill="#000000" fill-opacity="0.200000" stroke="#000000" stroke-width="2" stroke-opacity="0.200000" points="439.52,-224.56 445.74,-225.87 441.69,-220.97 439.52,-224.56"/>
</g>
<!-- core/decorators/injectable.ts -->
<g id="node6" class="node">
<title>core/decorators/injectable.ts</title>
<g id="a_node6"><a xlink:href="core/decorators/injectable.ts" xlink:title="injectable.ts">
<path fill="#ddfeff" stroke="black" d="M332,-72C332,-72 279,-72 279,-72 276,-72 273,-69 273,-66 273,-66 273,-60 273,-60 273,-57 276,-54 279,-54 279,-54 332,-54 332,-54 335,-54 338,-57 338,-60 338,-60 338,-66 338,-66 338,-69 335,-72 332,-72"/>
<text text-anchor="start" x="281" y="-60.8" font-family="Helvetica,sans-Serif" font-size="9.00">injectable.ts</text>
</a>
</g>
</g>
<!-- core/decorators/injectable.ts&#45;&gt;core/metadata/mod.ts -->
<g id="edge4" class="edge">
<title>core/decorators/injectable.ts&#45;&gt;core/metadata/mod.ts</title>
<path fill="none" stroke="#000000" stroke-width="2" stroke-opacity="0.200000" d="M338.36,-70.21C343.84,-72.23 349.28,-74.78 354,-78 368.34,-87.78 380.25,-103.87 387.69,-115.57"/>
<polygon fill="#000000" fill-opacity="0.200000" stroke="#000000" stroke-width="2" stroke-opacity="0.200000" points="386.04,-116.9 390.97,-120.91 389.62,-114.7 386.04,-116.9"/>
</g>
<!-- core/decorators/module.ts -->
<g id="node7" class="node">
<title>core/decorators/module.ts</title>
<g id="a_node7"><a xlink:href="core/decorators/module.ts" xlink:title="module.ts">
<path fill="#ddfeff" stroke="black" d="M327.5,-42C327.5,-42 283.5,-42 283.5,-42 280.5,-42 277.5,-39 277.5,-36 277.5,-36 277.5,-30 277.5,-30 277.5,-27 280.5,-24 283.5,-24 283.5,-24 327.5,-24 327.5,-24 330.5,-24 333.5,-27 333.5,-30 333.5,-30 333.5,-36 333.5,-36 333.5,-39 330.5,-42 327.5,-42"/>
<text text-anchor="start" x="285.5" y="-30.8" font-family="Helvetica,sans-Serif" font-size="9.00">module.ts</text>
</a>
</g>
</g>
<!-- core/decorators/module.ts&#45;&gt;core/metadata/mod.ts -->
<g id="edge5" class="edge">
<title>core/decorators/module.ts&#45;&gt;core/metadata/mod.ts</title>
<path fill="none" stroke="#000000" stroke-width="2" stroke-opacity="0.200000" d="M333.51,-37.55C340.76,-39.78 348.19,-43.09 354,-48 374.89,-65.65 386.61,-96.31 392.09,-114.72"/>
<polygon fill="#000000" fill-opacity="0.200000" stroke="#000000" stroke-width="2" stroke-opacity="0.200000" points="390.19,-115.7 393.84,-120.9 394.23,-114.56 390.19,-115.7"/>
</g>
<!-- core/internals/provider.ts&#45;&gt;core/metadata/mod.ts -->
<g id="edge11" class="edge">
<title>core/internals/provider.ts&#45;&gt;core/metadata/mod.ts</title>
<path fill="none" stroke="#000000" stroke-width="2" stroke-opacity="0.200000" d="M251.11,-162.18C253.37,-163.82 255.4,-165.74 257,-168 268.25,-183.82 250.66,-241.92 265,-255 279.61,-268.33 337.94,-266.55 354,-255 389.3,-229.62 395.34,-173.11 396.11,-145.62"/>
<polygon fill="#000000" fill-opacity="0.200000" stroke="#000000" stroke-width="2" stroke-opacity="0.200000" points="398.21,-145.32 396.2,-139.29 394.01,-145.26 398.21,-145.32"/>
</g>
<!-- core/internals/strategies/loose&#45;host.ts&#45;&gt;core/internals/strategies/strict&#45;host.ts -->
<g id="edge12" class="edge">
<title>core/internals/strategies/loose&#45;host.ts&#45;&gt;core/internals/strategies/strict&#45;host.ts</title>
<path fill="none" stroke="#000000" stroke-width="2" stroke-opacity="0.200000" d="M257.21,-217C260.29,-217 263.44,-217 266.56,-217"/>
<polygon fill="#000000" fill-opacity="0.200000" stroke="#000000" stroke-width="2" stroke-opacity="0.200000" points="266.92,-219.1 272.92,-217 266.92,-214.9 266.92,-219.1"/>
</g>
<!-- core/internals/strategies/strict&#45;host.ts&#45;&gt;core/metadata/mod.ts -->
<g id="edge13" class="edge">
<title>core/internals/strategies/strict&#45;host.ts&#45;&gt;core/metadata/mod.ts</title>
<path fill="none" stroke="#000000" stroke-width="2" stroke-opacity="0.200000" d="M316.08,-207.69C331.96,-192.25 363.8,-161.3 382.14,-143.47"/>
<polygon fill="#000000" fill-opacity="0.200000" stroke="#000000" stroke-width="2" stroke-opacity="0.200000" points="383.65,-144.93 386.49,-139.24 380.72,-141.92 383.65,-144.93"/>
</g>
<!-- core/metadata/add&#45;param.ts&#45;&gt;core/metadata/consts.ts -->
<g id="edge14" class="edge">
<title>core/metadata/add&#45;param.ts&#45;&gt;core/metadata/consts.ts</title>
<path fill="none" stroke="#000000" stroke-width="2" stroke-opacity="0.200000" d="M529.14,-47.8C536.57,-50.42 543.99,-54.03 550,-59 567.79,-73.72 578.81,-98.77 584.42,-114.84"/>
<polygon fill="#000000" fill-opacity="0.200000" stroke="#000000" stroke-width="2" stroke-opacity="0.200000" points="582.48,-115.68 586.37,-120.72 586.47,-114.36 582.48,-115.68"/>
</g>
<!-- core/metadata/get&#45;ctr&#45;params.ts&#45;&gt;core/metadata/consts.ts -->
<g id="edge15" class="edge">
<title>core/metadata/get&#45;ctr&#45;params.ts&#45;&gt;core/metadata/consts.ts</title>
<path fill="none" stroke="#000000" stroke-width="2" stroke-opacity="0.200000" d="M535.2,-94.01C540.3,-95.71 545.35,-97.7 550,-100 558.96,-104.44 567.87,-111.08 574.91,-116.99"/>
<polygon fill="#000000" fill-opacity="0.200000" stroke="#000000" stroke-width="2" stroke-opacity="0.200000" points="573.56,-118.6 579.47,-120.93 576.3,-115.42 573.56,-118.6"/>
</g>
<!-- core/metadata/get&#45;injectable.ts&#45;&gt;core/metadata/consts.ts -->
<g id="edge16" class="edge">
<title>core/metadata/get&#45;injectable.ts&#45;&gt;core/metadata/consts.ts</title>
<path fill="none" stroke="#000000" stroke-width="2" stroke-opacity="0.200000" d="M534.03,-121.27C541.62,-122.48 549.48,-123.73 556.8,-124.89"/>
<polygon fill="#000000" fill-opacity="0.200000" stroke="#000000" stroke-width="2" stroke-opacity="0.200000" points="556.55,-126.97 562.8,-125.84 557.21,-122.83 556.55,-126.97"/>
</g>
<!-- core/metadata/get&#45;injected&#45;params.ts&#45;&gt;core/metadata/consts.ts -->
<g id="edge17" class="edge">
<title>core/metadata/get&#45;injected&#45;params.ts&#45;&gt;core/metadata/consts.ts</title>
<path fill="none" stroke="#000000" stroke-width="2" stroke-opacity="0.200000" d="M547,-136.67C550.23,-136.15 553.42,-135.65 556.53,-135.15"/>
<polygon fill="#000000" fill-opacity="0.200000" stroke="#000000" stroke-width="2" stroke-opacity="0.200000" points="557.14,-137.18 562.74,-134.17 556.48,-133.04 557.14,-137.18"/>
</g>
<!-- core/metadata/get&#45;module&#45;definition.ts&#45;&gt;core/metadata/consts.ts -->
<g id="edge18" class="edge">
<title>core/metadata/get&#45;module&#45;definition.ts&#45;&gt;core/metadata/consts.ts</title>
<path fill="none" stroke="#000000" stroke-width="2" stroke-opacity="0.200000" d="M535.2,-165.99C540.3,-164.29 545.35,-162.3 550,-160 558.96,-155.56 567.87,-148.92 574.91,-143.01"/>
<polygon fill="#000000" fill-opacity="0.200000" stroke="#000000" stroke-width="2" stroke-opacity="0.200000" points="576.3,-144.58 579.47,-139.07 573.56,-141.4 576.3,-144.58"/>
</g>
<!-- core/metadata/set&#45;injectable.ts&#45;&gt;core/metadata/consts.ts -->
<g id="edge27" class="edge">
<title>core/metadata/set&#45;injectable.ts&#45;&gt;core/metadata/consts.ts</title>
<path fill="none" stroke="#000000" stroke-width="2" stroke-opacity="0.200000" d="M533.77,-198.28C539.54,-196.22 545.16,-193.52 550,-190 565.68,-178.59 576.74,-158.79 582.98,-145.07"/>
<polygon fill="#000000" fill-opacity="0.200000" stroke="#000000" stroke-width="2" stroke-opacity="0.200000" points="585.05,-145.58 585.51,-139.24 581.19,-143.91 585.05,-145.58"/>
</g>
<!-- core/metadata/set&#45;module&#45;definition.ts&#45;&gt;core/metadata/consts.ts -->
<g id="edge28" class="edge">
<title>core/metadata/set&#45;module&#45;definition.ts&#45;&gt;core/metadata/consts.ts</title>
<path fill="none" stroke="#000000" stroke-width="2" stroke-opacity="0.200000" d="M541.26,-225.87C544.4,-224.23 547.36,-222.28 550,-220 572.67,-200.4 582.6,-165.23 586.59,-145.15"/>
<polygon fill="#000000" fill-opacity="0.200000" stroke="#000000" stroke-width="2" stroke-opacity="0.200000" points="588.67,-145.48 587.69,-139.2 584.54,-144.72 588.67,-145.48"/>
</g>
<!-- core/mod.ts -->
<g id="node20" class="node">
<title>core/mod.ts</title>
<g id="a_node20"><a xlink:href="core/mod.ts" xlink:title="mod.ts">
<path fill="#ddfeff" stroke="black" d="M244,-72C244,-72 202,-72 202,-72 199,-72 196,-69 196,-66 196,-66 196,-60 196,-60 196,-57 199,-54 202,-54 202,-54 244,-54 244,-54 247,-54 250,-57 250,-60 250,-60 250,-66 250,-66 250,-69 247,-72 244,-72"/>
<text text-anchor="start" x="209" y="-60.8" font-family="Helvetica,sans-Serif" font-size="9.00">mod.ts</text>
</a>
</g>
</g>
<!-- core/mod.ts&#45;&gt;core/decorators/inject.ts -->
<g id="edge29" class="edge">
<title>core/mod.ts&#45;&gt;core/decorators/inject.ts</title>
<path fill="none" stroke="#000000" stroke-width="2" stroke-opacity="0.200000" d="M248.15,-72C256.36,-75.06 265.63,-78.51 274.25,-81.72"/>
<polygon fill="#000000" fill-opacity="0.200000" stroke="#000000" stroke-width="2" stroke-opacity="0.200000" points="273.73,-83.77 280.09,-83.9 275.2,-79.84 273.73,-83.77"/>
</g>
<!-- core/mod.ts&#45;&gt;core/decorators/injectable.ts -->
<g id="edge30" class="edge">
<title>core/mod.ts&#45;&gt;core/decorators/injectable.ts</title>
<path fill="none" stroke="#000000" stroke-width="2" stroke-opacity="0.200000" d="M250.36,-63C255.5,-63 260.99,-63 266.42,-63"/>
<polygon fill="#000000" fill-opacity="0.200000" stroke="#000000" stroke-width="2" stroke-opacity="0.200000" points="266.75,-65.1 272.75,-63 266.75,-60.9 266.75,-65.1"/>
</g>
<!-- core/mod.ts&#45;&gt;core/decorators/module.ts -->
<g id="edge31" class="edge">
<title>core/mod.ts&#45;&gt;core/decorators/module.ts</title>
<path fill="none" stroke="#000000" stroke-width="2" stroke-opacity="0.200000" d="M248.15,-54C256.36,-50.94 265.63,-47.49 274.25,-44.28"/>
<polygon fill="#000000" fill-opacity="0.200000" stroke="#000000" stroke-width="2" stroke-opacity="0.200000" points="275.2,-46.16 280.09,-42.1 273.73,-42.23 275.2,-46.16"/>
</g>
<!-- core/reflection/reflection.ts -->
<g id="node21" class="node">
<title>core/reflection/reflection.ts</title>
<g id="a_node21"><a xlink:href="core/reflection/reflection.ts" xlink:title="reflection.ts">
<path fill="#ccffcc" stroke="black" d="M81.5,-252C81.5,-252 30.5,-252 30.5,-252 27.5,-252 24.5,-249 24.5,-246 24.5,-246 24.5,-240 24.5,-240 24.5,-237 27.5,-234 30.5,-234 30.5,-234 81.5,-234 81.5,-234 84.5,-234 87.5,-237 87.5,-240 87.5,-240 87.5,-246 87.5,-246 87.5,-249 84.5,-252 81.5,-252"/>
<text text-anchor="start" x="32.5" y="-240.8" font-family="Helvetica,sans-Serif" font-size="9.00">reflection.ts</text>
</a>
</g>
</g>
<!-- core/types/metadata.ts -->
<g id="node22" class="node">
<title>core/types/metadata.ts</title>
<g id="a_node22"><a xlink:href="core/types/metadata.ts" xlink:title="metadata.ts">
<path fill="#ccffcc" stroke="black" d="M82,-192C82,-192 30,-192 30,-192 27,-192 24,-189 24,-186 24,-186 24,-180 24,-180 24,-177 27,-174 30,-174 30,-174 82,-174 82,-174 85,-174 88,-177 88,-180 88,-180 88,-186 88,-186 88,-189 85,-192 82,-192"/>
<text text-anchor="start" x="32" y="-180.8" font-family="Helvetica,sans-Serif" font-size="9.00">metadata.ts</text>
</a>
</g>
</g>
<!-- core/types/module.ts -->
<g id="node23" class="node">
<title>core/types/module.ts</title>
<g id="a_node23"><a xlink:href="core/types/module.ts" xlink:title="module.ts">
<path fill="#ccffcc" stroke="black" d="M78,-162C78,-162 34,-162 34,-162 31,-162 28,-159 28,-156 28,-156 28,-150 28,-150 28,-147 31,-144 34,-144 34,-144 78,-144 78,-144 81,-144 84,-147 84,-150 84,-150 84,-156 84,-156 84,-159 81,-162 78,-162"/>
<text text-anchor="start" x="36" y="-150.8" font-family="Helvetica,sans-Serif" font-size="9.00">module.ts</text>
</a>
</g>
</g>
<!-- core/types/providers.ts -->
<g id="node24" class="node">
<title>core/types/providers.ts</title>
<g id="a_node24"><a xlink:href="core/types/providers.ts" xlink:title="providers.ts">
<path fill="#ccffcc" stroke="black" d="M82,-132C82,-132 30,-132 30,-132 27,-132 24,-129 24,-126 24,-126 24,-120 24,-120 24,-117 27,-114 30,-114 30,-114 82,-114 82,-114 85,-114 88,-117 88,-120 88,-120 88,-126 88,-126 88,-129 85,-132 82,-132"/>
<text text-anchor="start" x="32" y="-120.8" font-family="Helvetica,sans-Serif" font-size="9.00">providers.ts</text>
</a>
</g>
</g>
<!-- core/types/reflection.ts -->
<g id="node25" class="node">
<title>core/types/reflection.ts</title>
<g id="a_node25"><a xlink:href="core/types/reflection.ts" xlink:title="reflection.ts">
<path fill="#ccffcc" stroke="black" d="M81.5,-102C81.5,-102 30.5,-102 30.5,-102 27.5,-102 24.5,-99 24.5,-96 24.5,-96 24.5,-90 24.5,-90 24.5,-87 27.5,-84 30.5,-84 30.5,-84 81.5,-84 81.5,-84 84.5,-84 87.5,-87 87.5,-90 87.5,-90 87.5,-96 87.5,-96 87.5,-99 84.5,-102 81.5,-102"/>
<text text-anchor="start" x="32.5" y="-90.8" font-family="Helvetica,sans-Serif" font-size="9.00">reflection.ts</text>
</a>
</g>
</g>
<!-- core/types/resolver.ts -->
<g id="node26" class="node">
<title>core/types/resolver.ts</title>
<g id="a_node26"><a xlink:href="core/types/resolver.ts" xlink:title="resolver.ts">
<path fill="#ccffcc" stroke="black" d="M79.5,-72C79.5,-72 32.5,-72 32.5,-72 29.5,-72 26.5,-69 26.5,-66 26.5,-66 26.5,-60 26.5,-60 26.5,-57 29.5,-54 32.5,-54 32.5,-54 79.5,-54 79.5,-54 82.5,-54 85.5,-57 85.5,-60 85.5,-60 85.5,-66 85.5,-66 85.5,-69 82.5,-72 79.5,-72"/>
<text text-anchor="start" x="34.5" y="-60.8" font-family="Helvetica,sans-Serif" font-size="9.00">resolver.ts</text>
</a>
</g>
</g>
</g>
</svg>
