<?xml version="1.0" encoding="UTF-8" standalone="no"?>
<!DOCTYPE svg PUBLIC "-//W3C//DTD SVG 1.1//EN"
 "http://www.w3.org/Graphics/SVG/1.1/DTD/svg11.dtd">
<!-- Generated by graphviz version 2.50.0 (20211204.2007)
 -->
<!-- Title: dependency&#45;cruiser output Pages: 1 -->
<svg width="774pt" height="434pt"
 viewBox="0.00 0.00 774.00 434.00" xmlns="http://www.w3.org/2000/svg" xmlns:xlink="http://www.w3.org/1999/xlink">
<g id="graph0" class="graph" transform="scale(1 1) rotate(0) translate(4 430)">
<title>dependency&#45;cruiser output</title>
<polygon fill="white" stroke="transparent" points="-4,4 -4,-430 770,-430 770,4 -4,4"/>
<g id="clust1" class="cluster">
<title>cluster_core</title>
<path fill="#ffffff" stroke="black" stroke-width="2" d="M20,-8C20,-8 746,-8 746,-8 752,-8 758,-14 758,-20 758,-20 758,-406 758,-406 758,-412 752,-418 746,-418 746,-418 20,-418 20,-418 14,-418 8,-412 8,-406 8,-406 8,-20 8,-20 8,-14 14,-8 20,-8"/>
<text text-anchor="middle" x="383" y="-406.8" font-family="Helvetica,sans-Serif" font-weight="bold" font-size="9.00">core</text>
</g>
<g id="clust2" class="cluster">
<title>cluster_core/context</title>
<path fill="#ffffff" stroke="black" stroke-width="2" d="M115,-40C115,-40 237,-40 237,-40 243,-40 249,-46 249,-52 249,-52 249,-80 249,-80 249,-86 243,-92 237,-92 237,-92 115,-92 115,-92 109,-92 103,-86 103,-80 103,-80 103,-52 103,-52 103,-46 109,-40 115,-40"/>
<text text-anchor="middle" x="176" y="-80.8" font-family="Helvetica,sans-Serif" font-weight="bold" font-size="9.00">context</text>
</g>
<g id="clust3" class="cluster">
<title>cluster_core/decorators</title>
<path fill="#ffffff" stroke="black" stroke-width="2" d="M339.5,-26C339.5,-26 467,-26 467,-26 473,-26 479,-32 479,-38 479,-38 479,-126 479,-126 479,-132 473,-138 467,-138 467,-138 339.5,-138 339.5,-138 333.5,-138 327.5,-132 327.5,-126 327.5,-126 327.5,-38 327.5,-38 327.5,-32 333.5,-26 339.5,-26"/>
<text text-anchor="middle" x="403.25" y="-126.8" font-family="Helvetica,sans-Serif" font-weight="bold" font-size="9.00">decorators</text>
</g>
<g id="clust4" class="cluster">
<title>cluster_core/internals</title>
<path fill="#ffffff" stroke="black" stroke-width="2" d="M269,-146C269,-146 464,-146 464,-146 470,-146 476,-152 476,-158 476,-158 476,-246 476,-246 476,-252 470,-258 464,-258 464,-258 269,-258 269,-258 263,-258 257,-252 257,-246 257,-246 257,-158 257,-158 257,-152 263,-146 269,-146"/>
<text text-anchor="middle" x="366.5" y="-246.8" font-family="Helvetica,sans-Serif" font-weight="bold" font-size="9.00">internals</text>
</g>
<g id="clust5" class="cluster">
<title>cluster_core/metadata</title>
<path fill="#ffffff" stroke="black" stroke-width="2" d="M499,-16C499,-16 738,-16 738,-16 744,-16 750,-22 750,-28 750,-28 750,-250 750,-250 750,-256 744,-262 738,-262 738,-262 499,-262 499,-262 493,-262 487,-256 487,-250 487,-250 487,-28 487,-28 487,-22 493,-16 499,-16"/>
<text text-anchor="middle" x="618.5" y="-250.8" font-family="Helvetica,sans-Serif" font-weight="bold" font-size="9.00">metadata</text>
</g>
<g id="clust6" class="cluster">
<title>cluster_core/reflection</title>
<path fill="#ffffff" stroke="black" stroke-width="2" d="M28,-340C28,-340 83,-340 83,-340 89,-340 95,-346 95,-352 95,-352 95,-380 95,-380 95,-386 89,-392 83,-392 83,-392 28,-392 28,-392 22,-392 16,-386 16,-380 16,-380 16,-352 16,-352 16,-346 22,-340 28,-340"/>
<text text-anchor="middle" x="55.5" y="-380.8" font-family="Helvetica,sans-Serif" font-weight="bold" font-size="9.00">reflection</text>
</g>
<g id="clust7" class="cluster">
<title>cluster_core/types</title>
<path fill="#ffffff" stroke="black" stroke-width="2" d="M32.5,-100C32.5,-100 166,-100 166,-100 172,-100 178,-106 178,-112 178,-112 178,-320 178,-320 178,-326 172,-332 166,-332 166,-332 32.5,-332 32.5,-332 26.5,-332 20.5,-326 20.5,-320 20.5,-320 20.5,-112 20.5,-112 20.5,-106 26.5,-100 32.5,-100"/>
<text text-anchor="middle" x="99.25" y="-320.8" font-family="Helvetica,sans-Serif" font-weight="bold" font-size="9.00">types</text>
</g>
<!-- core/context/context.ts -->
<g id="node1" class="node">
<title>core/context/context.ts</title>
<g id="a_node1"><a xlink:href="core/context/context.ts" xlink:title="context.ts">
<path fill="#ddfeff" stroke="black" d="M235,-66C235,-66 192,-66 192,-66 189,-66 186,-63 186,-60 186,-60 186,-54 186,-54 186,-51 189,-48 192,-48 192,-48 235,-48 235,-48 238,-48 241,-51 241,-54 241,-54 241,-60 241,-60 241,-63 238,-66 235,-66"/>
<text text-anchor="start" x="194" y="-54.8" font-family="Helvetica,sans-Serif" font-size="9.00">context.ts</text>
</a>
</g>
</g>
<!-- core/internals/mod.ts -->
<g id="node2" class="node">
<title>core/internals/mod.ts</title>
<g id="a_node2"><a xlink:href="core/internals/mod.ts" xlink:title="mod.ts">
<path fill="#ddfeff" stroke="black" d="M313,-202C313,-202 271,-202 271,-202 268,-202 265,-199 265,-196 265,-196 265,-190 265,-190 265,-187 268,-184 271,-184 271,-184 313,-184 313,-184 316,-184 319,-187 319,-190 319,-190 319,-196 319,-196 319,-199 316,-202 313,-202"/>
<text text-anchor="start" x="278" y="-190.8" font-family="Helvetica,sans-Serif" font-size="9.00">mod.ts</text>
</a>
</g>
</g>
<!-- core/context/context.ts&#45;&gt;core/internals/mod.ts -->
<g id="edge1" class="edge">
<title>core/context/context.ts&#45;&gt;core/internals/mod.ts</title>
<path fill="none" stroke="#000000" stroke-width="2" stroke-opacity="0.200000" d="M215.08,-66.06C216.99,-88.44 224.94,-146.88 257,-180 257.86,-180.89 258.78,-181.71 259.76,-182.48"/>
<polygon fill="#000000" fill-opacity="0.200000" stroke="#000000" stroke-width="2" stroke-opacity="0.200000" points="258.82,-184.38 264.99,-185.89 261.11,-180.86 258.82,-184.38"/>
</g>
<!-- core/internals/compiler.ts -->
<g id="node9" class="node">
<title>core/internals/compiler.ts</title>
<g id="a_node9"><a xlink:href="core/internals/compiler.ts" xlink:title="compiler.ts">
<path fill="#ddfeff" stroke="black" d="M387,-202C387,-202 338,-202 338,-202 335,-202 332,-199 332,-196 332,-196 332,-190 332,-190 332,-187 335,-184 338,-184 338,-184 387,-184 387,-184 390,-184 393,-187 393,-190 393,-190 393,-196 393,-196 393,-199 390,-202 387,-202"/>
<text text-anchor="start" x="340" y="-190.8" font-family="Helvetica,sans-Serif" font-size="9.00">compiler.ts</text>
</a>
</g>
</g>
<!-- core/internals/mod.ts&#45;&gt;core/internals/compiler.ts -->
<g id="edge14" class="edge">
<title>core/internals/mod.ts&#45;&gt;core/internals/compiler.ts</title>
<path fill="none" stroke="#000000" stroke-width="2" stroke-opacity="0.200000" d="M319.29,-193C321.33,-193 323.4,-193 325.49,-193"/>
<polygon fill="#000000" fill-opacity="0.200000" stroke="#000000" stroke-width="2" stroke-opacity="0.200000" points="325.74,-195.1 331.74,-193 325.74,-190.9 325.74,-195.1"/>
</g>
<!-- core/internals/linker.ts -->
<g id="node13" class="node">
<title>core/internals/linker.ts</title>
<g id="a_node13"><a xlink:href="core/internals/linker.ts" xlink:title="linker.ts">
<path fill="#ddfeff" stroke="black" d="M383.5,-232C383.5,-232 341.5,-232 341.5,-232 338.5,-232 335.5,-229 335.5,-226 335.5,-226 335.5,-220 335.5,-220 335.5,-217 338.5,-214 341.5,-214 341.5,-214 383.5,-214 383.5,-214 386.5,-214 389.5,-217 389.5,-220 389.5,-220 389.5,-226 389.5,-226 389.5,-229 386.5,-232 383.5,-232"/>
<text text-anchor="start" x="346.5" y="-220.8" font-family="Helvetica,sans-Serif" font-size="9.00">linker.ts</text>
</a>
</g>
</g>
<!-- core/internals/mod.ts&#45;&gt;core/internals/linker.ts -->
<g id="edge15" class="edge">
<title>core/internals/mod.ts&#45;&gt;core/internals/linker.ts</title>
<path fill="none" stroke="#000000" stroke-width="2" stroke-opacity="0.200000" d="M313.55,-202C320.2,-204.91 327.68,-208.19 334.71,-211.27"/>
<polygon fill="#000000" fill-opacity="0.200000" stroke="#000000" stroke-width="2" stroke-opacity="0.200000" points="334.15,-213.31 340.49,-213.8 335.83,-209.47 334.15,-213.31"/>
</g>
<!-- core/context/mod.ts -->
<g id="node3" class="node">
<title>core/context/mod.ts</title>
<g id="a_node3"><a xlink:href="core/context/mod.ts" xlink:title="mod.ts">
<path fill="#ddfeff" stroke="black" d="M159,-66C159,-66 117,-66 117,-66 114,-66 111,-63 111,-60 111,-60 111,-54 111,-54 111,-51 114,-48 117,-48 117,-48 159,-48 159,-48 162,-48 165,-51 165,-54 165,-54 165,-60 165,-60 165,-63 162,-66 159,-66"/>
<text text-anchor="start" x="124" y="-54.8" font-family="Helvetica,sans-Serif" font-size="9.00">mod.ts</text>
</a>
</g>
</g>
<!-- core/context/mod.ts&#45;&gt;core/context/context.ts -->
<g id="edge2" class="edge">
<title>core/context/mod.ts&#45;&gt;core/context/context.ts</title>
<path fill="none" stroke="#000000" stroke-width="2" stroke-opacity="0.200000" d="M165.12,-57C169.88,-57 174.9,-57 179.82,-57"/>
<polygon fill="#000000" fill-opacity="0.200000" stroke="#000000" stroke-width="2" stroke-opacity="0.200000" points="179.97,-59.1 185.97,-57 179.97,-54.9 179.97,-59.1"/>
</g>
<!-- core/decorators/inject.ts -->
<g id="node4" class="node">
<title>core/decorators/inject.ts</title>
<g id="a_node4"><a xlink:href="core/decorators/inject.ts" xlink:title="inject.ts">
<path fill="#ddfeff" stroke="black" d="M459.5,-52C459.5,-52 417.5,-52 417.5,-52 414.5,-52 411.5,-49 411.5,-46 411.5,-46 411.5,-40 411.5,-40 411.5,-37 414.5,-34 417.5,-34 417.5,-34 459.5,-34 459.5,-34 462.5,-34 465.5,-37 465.5,-40 465.5,-40 465.5,-46 465.5,-46 465.5,-49 462.5,-52 459.5,-52"/>
<text text-anchor="start" x="423" y="-40.8" font-family="Helvetica,sans-Serif" font-size="9.00">inject.ts</text>
</a>
</g>
</g>
<!-- core/metadata/mod.ts -->
<g id="node5" class="node">
<title>core/metadata/mod.ts</title>
<g id="a_node5"><a xlink:href="core/metadata/mod.ts" xlink:title="mod.ts">
<path fill="#ddfeff" stroke="red" d="M543,-116C543,-116 501,-116 501,-116 498,-116 495,-113 495,-110 495,-110 495,-104 495,-104 495,-101 498,-98 501,-98 501,-98 543,-98 543,-98 546,-98 549,-101 549,-104 549,-104 549,-110 549,-110 549,-113 546,-116 543,-116"/>
<text text-anchor="start" x="508" y="-104.8" font-family="Helvetica,sans-Serif" font-size="9.00" fill="red">mod.ts</text>
</a>
</g>
</g>
<!-- core/decorators/inject.ts&#45;&gt;core/metadata/mod.ts -->
<g id="edge3" class="edge">
<title>core/decorators/inject.ts&#45;&gt;core/metadata/mod.ts</title>
<path fill="none" stroke="#000000" stroke-width="2" stroke-opacity="0.200000" d="M465.52,-50.75C470.22,-52.73 474.92,-55.13 479,-58 492.39,-67.41 504.18,-82.04 511.83,-92.86"/>
<polygon fill="#000000" fill-opacity="0.200000" stroke="#000000" stroke-width="2" stroke-opacity="0.200000" points="510.11,-94.08 515.24,-97.83 513.58,-91.7 510.11,-94.08"/>
</g>
<!-- core/metadata/add&#45;param.ts -->
<g id="node14" class="node">
<title>core/metadata/add&#45;param.ts</title>
<g id="a_node14"><a xlink:href="core/metadata/add-param.ts" xlink:title="add&#45;param.ts">
<path fill="#ddfeff" stroke="black" d="M648,-42C648,-42 589,-42 589,-42 586,-42 583,-39 583,-36 583,-36 583,-30 583,-30 583,-27 586,-24 589,-24 589,-24 648,-24 648,-24 651,-24 654,-27 654,-30 654,-30 654,-36 654,-36 654,-39 651,-42 648,-42"/>
<text text-anchor="start" x="591" y="-30.8" font-family="Helvetica,sans-Serif" font-size="9.00">add&#45;param.ts</text>
</a>
</g>
</g>
<!-- core/metadata/mod.ts&#45;&gt;core/metadata/add&#45;param.ts -->
<g id="edge22" class="edge">
<title>core/metadata/mod.ts&#45;&gt;core/metadata/add&#45;param.ts</title>
<path fill="none" stroke="#000000" stroke-width="2" stroke-opacity="0.200000" d="M527.14,-97.65C533.1,-85.23 545.25,-63.42 562,-51 566.54,-47.63 571.74,-44.88 577.09,-42.63"/>
<polygon fill="#000000" fill-opacity="0.200000" stroke="#000000" stroke-width="2" stroke-opacity="0.200000" points="578.09,-44.49 582.94,-40.38 576.59,-40.57 578.09,-44.49"/>
</g>
<!-- core/metadata/consts.ts -->
<g id="node15" class="node">
<title>core/metadata/consts.ts</title>
<g id="a_node15"><a xlink:href="core/metadata/consts.ts" xlink:title="consts.ts">
<path fill="#ddfeff" stroke="black" d="M736,-131C736,-131 694,-131 694,-131 691,-131 688,-128 688,-125 688,-125 688,-119 688,-119 688,-116 691,-113 694,-113 694,-113 736,-113 736,-113 739,-113 742,-116 742,-119 742,-119 742,-125 742,-125 742,-128 739,-131 736,-131"/>
<text text-anchor="start" x="697" y="-119.8" font-family="Helvetica,sans-Serif" font-size="9.00">consts.ts</text>
</a>
</g>
</g>
<!-- core/metadata/mod.ts&#45;&gt;core/metadata/consts.ts -->
<g id="edge23" class="edge">
<title>core/metadata/mod.ts&#45;&gt;core/metadata/consts.ts</title>
<path fill="none" stroke="#000000" stroke-width="2" stroke-opacity="0.200000" d="M527.83,-97.65C534.06,-86.75 546.01,-69.3 562,-62 584.84,-51.57 652.93,-50.02 675,-62 692.39,-71.44 703.24,-92.35 708.95,-106.81"/>
<polygon fill="#000000" fill-opacity="0.200000" stroke="#000000" stroke-width="2" stroke-opacity="0.200000" points="707.03,-107.67 711.09,-112.56 710.97,-106.21 707.03,-107.67"/>
</g>
<!-- core/metadata/get&#45;ctr&#45;params.ts -->
<g id="node16" class="node">
<title>core/metadata/get&#45;ctr&#45;params.ts</title>
<g id="a_node16"><a xlink:href="core/metadata/get-ctr-params.ts" xlink:title="get&#45;ctr&#45;params.ts">
<path fill="#ddfeff" stroke="black" d="M655,-86C655,-86 582,-86 582,-86 579,-86 576,-83 576,-80 576,-80 576,-74 576,-74 576,-71 579,-68 582,-68 582,-68 655,-68 655,-68 658,-68 661,-71 661,-74 661,-74 661,-80 661,-80 661,-83 658,-86 655,-86"/>
<text text-anchor="start" x="584" y="-74.8" font-family="Helvetica,sans-Serif" font-size="9.00">get&#45;ctr&#45;params.ts</text>
</a>
</g>
</g>
<!-- core/metadata/mod.ts&#45;&gt;core/metadata/get&#45;ctr&#45;params.ts -->
<g id="edge24" class="edge">
<title>core/metadata/mod.ts&#45;&gt;core/metadata/get&#45;ctr&#45;params.ts</title>
<path fill="none" stroke="#000000" stroke-width="2" stroke-opacity="0.200000" d="M545.54,-97.88C550.9,-95.83 556.62,-93.76 562,-92 566.47,-90.54 571.17,-89.11 575.87,-87.75"/>
<polygon fill="#000000" fill-opacity="0.200000" stroke="#000000" stroke-width="2" stroke-opacity="0.200000" points="576.61,-89.72 581.81,-86.06 575.46,-85.68 576.61,-89.72"/>
</g>
<!-- core/metadata/get&#45;injectable.ts -->
<g id="node17" class="node">
<title>core/metadata/get&#45;injectable.ts</title>
<g id="a_node17"><a xlink:href="core/metadata/get-injectable.ts" xlink:title="get&#45;injectable.ts">
<path fill="#ddfeff" stroke="black" d="M653,-116C653,-116 584,-116 584,-116 581,-116 578,-113 578,-110 578,-110 578,-104 578,-104 578,-101 581,-98 584,-98 584,-98 653,-98 653,-98 656,-98 659,-101 659,-104 659,-104 659,-110 659,-110 659,-113 656,-116 653,-116"/>
<text text-anchor="start" x="586" y="-104.8" font-family="Helvetica,sans-Serif" font-size="9.00">get&#45;injectable.ts</text>
</a>
</g>
</g>
<!-- core/metadata/mod.ts&#45;&gt;core/metadata/get&#45;injectable.ts -->
<g id="edge25" class="edge">
<title>core/metadata/mod.ts&#45;&gt;core/metadata/get&#45;injectable.ts</title>
<path fill="none" stroke="#000000" stroke-width="2" stroke-opacity="0.200000" d="M549.07,-107C555.99,-107 563.66,-107 571.3,-107"/>
<polygon fill="#000000" fill-opacity="0.200000" stroke="#000000" stroke-width="2" stroke-opacity="0.200000" points="571.7,-109.1 577.7,-107 571.7,-104.9 571.7,-109.1"/>
</g>
<!-- core/metadata/get&#45;injected&#45;params.ts -->
<g id="node18" class="node">
<title>core/metadata/get&#45;injected&#45;params.ts</title>
<g id="a_node18"><a xlink:href="core/metadata/get-injected-params.ts" xlink:title="get&#45;injected&#45;params.ts">
<path fill="#ddfeff" stroke="black" d="M666,-146C666,-146 571,-146 571,-146 568,-146 565,-143 565,-140 565,-140 565,-134 565,-134 565,-131 568,-128 571,-128 571,-128 666,-128 666,-128 669,-128 672,-131 672,-134 672,-134 672,-140 672,-140 672,-143 669,-146 666,-146"/>
<text text-anchor="start" x="573" y="-134.8" font-family="Helvetica,sans-Serif" font-size="9.00">get&#45;injected&#45;params.ts</text>
</a>
</g>
</g>
<!-- core/metadata/mod.ts&#45;&gt;core/metadata/get&#45;injected&#45;params.ts -->
<g id="edge26" class="edge">
<title>core/metadata/mod.ts&#45;&gt;core/metadata/get&#45;injected&#45;params.ts</title>
<path fill="none" stroke="#000000" stroke-width="2" stroke-opacity="0.200000" d="M545.54,-116.12C550.9,-118.17 556.62,-120.24 562,-122 566.47,-123.46 571.17,-124.89 575.87,-126.25"/>
<polygon fill="#000000" fill-opacity="0.200000" stroke="#000000" stroke-width="2" stroke-opacity="0.200000" points="575.46,-128.32 581.81,-127.94 576.61,-124.28 575.46,-128.32"/>
</g>
<!-- core/metadata/get&#45;module&#45;definition.ts -->
<g id="node19" class="node">
<title>core/metadata/get&#45;module&#45;definition.ts</title>
<g id="a_node19"><a xlink:href="core/metadata/get-module-definition.ts" xlink:title="get&#45;module&#45;definition.ts">
<path fill="#ddfeff" stroke="black" d="M669,-176C669,-176 568,-176 568,-176 565,-176 562,-173 562,-170 562,-170 562,-164 562,-164 562,-161 565,-158 568,-158 568,-158 669,-158 669,-158 672,-158 675,-161 675,-164 675,-164 675,-170 675,-170 675,-173 672,-176 669,-176"/>
<text text-anchor="start" x="570" y="-164.8" font-family="Helvetica,sans-Serif" font-size="9.00">get&#45;module&#45;definition.ts</text>
</a>
</g>
</g>
<!-- core/metadata/mod.ts&#45;&gt;core/metadata/get&#45;module&#45;definition.ts -->
<g id="edge27" class="edge">
<title>core/metadata/mod.ts&#45;&gt;core/metadata/get&#45;module&#45;definition.ts</title>
<path fill="none" stroke="#000000" stroke-width="2" stroke-opacity="0.200000" d="M528.44,-116.02C535.09,-126.27 547.29,-142.77 562,-152 563.98,-153.24 566.05,-154.38 568.2,-155.42"/>
<polygon fill="#000000" fill-opacity="0.200000" stroke="#000000" stroke-width="2" stroke-opacity="0.200000" points="567.67,-157.49 574.01,-157.98 569.36,-153.64 567.67,-157.49"/>
</g>
<!-- core/metadata/set&#45;injectable.ts -->
<g id="node20" class="node">
<title>core/metadata/set&#45;injectable.ts</title>
<g id="a_node20"><a xlink:href="core/metadata/set-injectable.ts" xlink:title="set&#45;injectable.ts">
<path fill="#ddfeff" stroke="black" d="M652.5,-206C652.5,-206 584.5,-206 584.5,-206 581.5,-206 578.5,-203 578.5,-200 578.5,-200 578.5,-194 578.5,-194 578.5,-191 581.5,-188 584.5,-188 584.5,-188 652.5,-188 652.5,-188 655.5,-188 658.5,-191 658.5,-194 658.5,-194 658.5,-200 658.5,-200 658.5,-203 655.5,-206 652.5,-206"/>
<text text-anchor="start" x="586.5" y="-194.8" font-family="Helvetica,sans-Serif" font-size="9.00">set&#45;injectable.ts</text>
</a>
</g>
</g>
<!-- core/metadata/mod.ts&#45;&gt;core/metadata/set&#45;injectable.ts -->
<g id="edge28" class="edge">
<title>core/metadata/mod.ts&#45;&gt;core/metadata/set&#45;injectable.ts</title>
<path fill="none" stroke="#000000" stroke-width="2" stroke-opacity="0.200000" d="M525.18,-116.15C529.43,-132.02 540.39,-164.61 562,-182 565.24,-184.61 568.89,-186.76 572.74,-188.54"/>
<polygon fill="#000000" fill-opacity="0.200000" stroke="#000000" stroke-width="2" stroke-opacity="0.200000" points="572.15,-190.57 578.5,-190.9 573.74,-186.68 572.15,-190.57"/>
</g>
<!-- core/metadata/set&#45;module&#45;definition.ts -->
<g id="node21" class="node">
<title>core/metadata/set&#45;module&#45;definition.ts</title>
<g id="a_node21"><a xlink:href="core/metadata/set-module-definition.ts" xlink:title="set&#45;module&#45;definition.ts">
<path fill="#ddfeff" stroke="black" d="M668.5,-236C668.5,-236 568.5,-236 568.5,-236 565.5,-236 562.5,-233 562.5,-230 562.5,-230 562.5,-224 562.5,-224 562.5,-221 565.5,-218 568.5,-218 568.5,-218 668.5,-218 668.5,-218 671.5,-218 674.5,-221 674.5,-224 674.5,-224 674.5,-230 674.5,-230 674.5,-233 671.5,-236 668.5,-236"/>
<text text-anchor="start" x="570.5" y="-224.8" font-family="Helvetica,sans-Serif" font-size="9.00">set&#45;module&#45;definition.ts</text>
</a>
</g>
</g>
<!-- core/metadata/mod.ts&#45;&gt;core/metadata/set&#45;module&#45;definition.ts -->
<g id="edge29" class="edge">
<title>core/metadata/mod.ts&#45;&gt;core/metadata/set&#45;module&#45;definition.ts</title>
<path fill="none" stroke="#000000" stroke-width="2" stroke-opacity="0.200000" d="M523.66,-116.11C525.63,-136.45 533.27,-185.79 562,-212 563.02,-212.93 564.09,-213.8 565.2,-214.62"/>
<polygon fill="#000000" fill-opacity="0.200000" stroke="#000000" stroke-width="2" stroke-opacity="0.200000" points="564.14,-216.44 570.33,-217.88 566.4,-212.89 564.14,-216.44"/>
</g>
<!-- core/decorators/injectable.ts -->
<g id="node6" class="node">
<title>core/decorators/injectable.ts</title>
<g id="a_node6"><a xlink:href="core/decorators/injectable.ts" xlink:title="injectable.ts">
<path fill="#ddfeff" stroke="black" d="M465,-82C465,-82 412,-82 412,-82 409,-82 406,-79 406,-76 406,-76 406,-70 406,-70 406,-67 409,-64 412,-64 412,-64 465,-64 465,-64 468,-64 471,-67 471,-70 471,-70 471,-76 471,-76 471,-79 468,-82 465,-82"/>
<text text-anchor="start" x="414" y="-70.8" font-family="Helvetica,sans-Serif" font-size="9.00">injectable.ts</text>
</a>
</g>
</g>
<!-- core/decorators/injectable.ts&#45;&gt;core/metadata/mod.ts -->
<g id="edge4" class="edge">
<title>core/decorators/injectable.ts&#45;&gt;core/metadata/mod.ts</title>
<path fill="none" stroke="#000000" stroke-width="2" stroke-opacity="0.200000" d="M464.25,-82.13C469.16,-84.01 474.26,-86.03 479,-88 484.43,-90.26 490.2,-92.78 495.67,-95.23"/>
<polygon fill="#000000" fill-opacity="0.200000" stroke="#000000" stroke-width="2" stroke-opacity="0.200000" points="495.12,-97.29 501.45,-97.85 496.85,-93.47 495.12,-97.29"/>
</g>
<!-- core/decorators/mod.ts -->
<g id="node7" class="node">
<title>core/decorators/mod.ts</title>
<g id="a_node7"><a xlink:href="core/decorators/mod.ts" xlink:title="mod.ts">
<path fill="#ddfeff" stroke="black" d="M383.5,-67C383.5,-67 341.5,-67 341.5,-67 338.5,-67 335.5,-64 335.5,-61 335.5,-61 335.5,-55 335.5,-55 335.5,-52 338.5,-49 341.5,-49 341.5,-49 383.5,-49 383.5,-49 386.5,-49 389.5,-52 389.5,-55 389.5,-55 389.5,-61 389.5,-61 389.5,-64 386.5,-67 383.5,-67"/>
<text text-anchor="start" x="348.5" y="-55.8" font-family="Helvetica,sans-Serif" font-size="9.00">mod.ts</text>
</a>
</g>
</g>
<!-- core/decorators/mod.ts&#45;&gt;core/decorators/inject.ts -->
<g id="edge5" class="edge">
<title>core/decorators/mod.ts&#45;&gt;core/decorators/inject.ts</title>
<path fill="none" stroke="#000000" stroke-width="2" stroke-opacity="0.200000" d="M389.8,-52.67C394.81,-51.65 400.12,-50.58 405.29,-49.53"/>
<polygon fill="#000000" fill-opacity="0.200000" stroke="#000000" stroke-width="2" stroke-opacity="0.200000" points="405.82,-51.56 411.29,-48.31 404.99,-47.45 405.82,-51.56"/>
</g>
<!-- core/decorators/mod.ts&#45;&gt;core/decorators/injectable.ts -->
<g id="edge6" class="edge">
<title>core/decorators/mod.ts&#45;&gt;core/decorators/injectable.ts</title>
<path fill="none" stroke="#000000" stroke-width="2" stroke-opacity="0.200000" d="M389.8,-63.33C393.07,-63.99 396.46,-64.68 399.86,-65.37"/>
<polygon fill="#000000" fill-opacity="0.200000" stroke="#000000" stroke-width="2" stroke-opacity="0.200000" points="399.67,-67.47 405.97,-66.61 400.5,-63.36 399.67,-67.47"/>
</g>
<!-- core/decorators/module.ts -->
<g id="node8" class="node">
<title>core/decorators/module.ts</title>
<g id="a_node8"><a xlink:href="core/decorators/module.ts" xlink:title="module.ts">
<path fill="#ddfeff" stroke="black" d="M460.5,-112C460.5,-112 416.5,-112 416.5,-112 413.5,-112 410.5,-109 410.5,-106 410.5,-106 410.5,-100 410.5,-100 410.5,-97 413.5,-94 416.5,-94 416.5,-94 460.5,-94 460.5,-94 463.5,-94 466.5,-97 466.5,-100 466.5,-100 466.5,-106 466.5,-106 466.5,-109 463.5,-112 460.5,-112"/>
<text text-anchor="start" x="418.5" y="-100.8" font-family="Helvetica,sans-Serif" font-size="9.00">module.ts</text>
</a>
</g>
</g>
<!-- core/decorators/mod.ts&#45;&gt;core/decorators/module.ts -->
<g id="edge7" class="edge">
<title>core/decorators/mod.ts&#45;&gt;core/decorators/module.ts</title>
<path fill="none" stroke="#000000" stroke-width="2" stroke-opacity="0.200000" d="M375.41,-67.23C383.73,-73.48 395.24,-81.7 406,-88 407.89,-89.11 409.87,-90.2 411.88,-91.26"/>
<polygon fill="#000000" fill-opacity="0.200000" stroke="#000000" stroke-width="2" stroke-opacity="0.200000" points="410.94,-93.13 417.24,-93.98 412.84,-89.39 410.94,-93.13"/>
</g>
<!-- core/decorators/module.ts&#45;&gt;core/metadata/mod.ts -->
<g id="edge8" class="edge">
<title>core/decorators/module.ts&#45;&gt;core/metadata/mod.ts</title>
<path fill="none" stroke="#000000" stroke-width="2" stroke-opacity="0.200000" d="M466.64,-104.33C473.73,-104.68 481.44,-105.06 488.77,-105.42"/>
<polygon fill="#000000" fill-opacity="0.200000" stroke="#000000" stroke-width="2" stroke-opacity="0.200000" points="488.71,-107.52 494.81,-105.71 488.92,-103.32 488.71,-107.52"/>
</g>
<!-- core/internals/host.ts -->
<g id="node10" class="node">
<title>core/internals/host.ts</title>
<g id="a_node10"><a xlink:href="core/internals/host.ts" xlink:title="host.ts">
<path fill="#ddfeff" stroke="black" d="M459.5,-172C459.5,-172 417.5,-172 417.5,-172 414.5,-172 411.5,-169 411.5,-166 411.5,-166 411.5,-160 411.5,-160 411.5,-157 414.5,-154 417.5,-154 417.5,-154 459.5,-154 459.5,-154 462.5,-154 465.5,-157 465.5,-160 465.5,-160 465.5,-166 465.5,-166 465.5,-169 462.5,-172 459.5,-172"/>
<text text-anchor="start" x="425" y="-160.8" font-family="Helvetica,sans-Serif" font-size="9.00">host.ts</text>
</a>
</g>
</g>
<!-- core/internals/compiler.ts&#45;&gt;core/internals/host.ts -->
<g id="edge9" class="edge">
<title>core/internals/compiler.ts&#45;&gt;core/internals/host.ts</title>
<path fill="none" stroke="#000000" stroke-width="2" stroke-opacity="0.200000" d="M385.7,-184C393.1,-181 401.44,-177.62 409.23,-174.46"/>
<polygon fill="#000000" fill-opacity="0.200000" stroke="#000000" stroke-width="2" stroke-opacity="0.200000" points="410.29,-176.3 415.06,-172.1 408.71,-172.41 410.29,-176.3"/>
</g>
<!-- core/internals/provider.ts -->
<g id="node11" class="node">
<title>core/internals/provider.ts</title>
<g id="a_node11"><a xlink:href="core/internals/provider.ts" xlink:title="provider.ts">
<path fill="#ddfeff" stroke="black" d="M462,-202C462,-202 415,-202 415,-202 412,-202 409,-199 409,-196 409,-196 409,-190 409,-190 409,-187 412,-184 415,-184 415,-184 462,-184 462,-184 465,-184 468,-187 468,-190 468,-190 468,-196 468,-196 468,-199 465,-202 462,-202"/>
<text text-anchor="start" x="417" y="-190.8" font-family="Helvetica,sans-Serif" font-size="9.00">provider.ts</text>
</a>
</g>
</g>
<!-- core/internals/compiler.ts&#45;&gt;core/internals/provider.ts -->
<g id="edge10" class="edge">
<title>core/internals/compiler.ts&#45;&gt;core/internals/provider.ts</title>
<path fill="none" stroke="#000000" stroke-width="2" stroke-opacity="0.200000" d="M393.17,-193C396.23,-193 399.35,-193 402.46,-193"/>
<polygon fill="#000000" fill-opacity="0.200000" stroke="#000000" stroke-width="2" stroke-opacity="0.200000" points="402.78,-195.1 408.78,-193 402.78,-190.9 402.78,-195.1"/>
</g>
<!-- core/internals/registry.ts -->
<g id="node12" class="node">
<title>core/internals/registry.ts</title>
<g id="a_node12"><a xlink:href="core/internals/registry.ts" xlink:title="registry.ts">
<path fill="#ddfeff" stroke="black" d="M460.5,-232C460.5,-232 416.5,-232 416.5,-232 413.5,-232 410.5,-229 410.5,-226 410.5,-226 410.5,-220 410.5,-220 410.5,-217 413.5,-214 416.5,-214 416.5,-214 460.5,-214 460.5,-214 463.5,-214 466.5,-217 466.5,-220 466.5,-220 466.5,-226 466.5,-226 466.5,-229 463.5,-232 460.5,-232"/>
<text text-anchor="start" x="418.5" y="-220.8" font-family="Helvetica,sans-Serif" font-size="9.00">registry.ts</text>
</a>
</g>
</g>
<!-- core/internals/compiler.ts&#45;&gt;core/internals/registry.ts -->
<g id="edge11" class="edge">
<title>core/internals/compiler.ts&#45;&gt;core/internals/registry.ts</title>
<path fill="none" stroke="#000000" stroke-width="2" stroke-opacity="0.200000" d="M385.7,-202C393.1,-205 401.44,-208.38 409.23,-211.54"/>
<polygon fill="#000000" fill-opacity="0.200000" stroke="#000000" stroke-width="2" stroke-opacity="0.200000" points="408.71,-213.59 415.06,-213.9 410.29,-209.7 408.71,-213.59"/>
</g>
<!-- core/internals/host.ts&#45;&gt;core/metadata/mod.ts -->
<g id="edge12" class="edge">
<title>core/internals/host.ts&#45;&gt;core/metadata/mod.ts</title>
<path fill="none" stroke="#000000" stroke-width="2" stroke-opacity="0.200000" d="M457.19,-153.99C464.15,-150.23 472.11,-145.66 479,-141 488.4,-134.65 498.29,-126.71 506.11,-120.11"/>
<polygon fill="#000000" fill-opacity="0.200000" stroke="#000000" stroke-width="2" stroke-opacity="0.200000" points="507.49,-121.69 510.69,-116.19 504.76,-118.49 507.49,-121.69"/>
</g>
<!-- core/internals/provider.ts&#45;&gt;core/metadata/mod.ts -->
<g id="edge16" class="edge">
<title>core/internals/provider.ts&#45;&gt;core/metadata/mod.ts</title>
<path fill="none" stroke="#000000" stroke-width="2" stroke-opacity="0.200000" d="M468.4,-184.68C472.2,-182.85 475.86,-180.65 479,-178 496.99,-162.85 509.18,-137.93 515.61,-122"/>
<polygon fill="#000000" fill-opacity="0.200000" stroke="#000000" stroke-width="2" stroke-opacity="0.200000" points="517.66,-122.53 517.87,-116.17 513.74,-121.01 517.66,-122.53"/>
</g>
<!-- core/internals/linker.ts&#45;&gt;core/metadata/mod.ts -->
<g id="edge13" class="edge">
<title>core/internals/linker.ts&#45;&gt;core/metadata/mod.ts</title>
<path fill="none" stroke="#000000" stroke-width="2" stroke-opacity="0.200000" d="M380.63,-232.04C404.94,-243.5 449.76,-259.33 479,-238 516.15,-210.89 521.18,-150.45 521.39,-122.15"/>
<polygon fill="#000000" fill-opacity="0.200000" stroke="#000000" stroke-width="2" stroke-opacity="0.200000" points="523.48,-121.99 521.36,-116 519.28,-122.01 523.48,-121.99"/>
</g>
<!-- core/metadata/add&#45;param.ts&#45;&gt;core/metadata/consts.ts -->
<g id="edge17" class="edge">
<title>core/metadata/add&#45;param.ts&#45;&gt;core/metadata/consts.ts</title>
<path fill="none" stroke="#000000" stroke-width="2" stroke-opacity="0.200000" d="M654.14,-39.8C661.57,-42.42 668.99,-46.03 675,-51 692.79,-65.72 703.81,-90.77 709.42,-106.84"/>
<polygon fill="#000000" fill-opacity="0.200000" stroke="#000000" stroke-width="2" stroke-opacity="0.200000" points="707.48,-107.68 711.37,-112.72 711.47,-106.36 707.48,-107.68"/>
</g>
<!-- core/metadata/get&#45;ctr&#45;params.ts&#45;&gt;core/metadata/consts.ts -->
<g id="edge18" class="edge">
<title>core/metadata/get&#45;ctr&#45;params.ts&#45;&gt;core/metadata/consts.ts</title>
<path fill="none" stroke="#000000" stroke-width="2" stroke-opacity="0.200000" d="M660.2,-86.01C665.3,-87.71 670.35,-89.7 675,-92 683.96,-96.44 692.87,-103.08 699.91,-108.99"/>
<polygon fill="#000000" fill-opacity="0.200000" stroke="#000000" stroke-width="2" stroke-opacity="0.200000" points="698.56,-110.6 704.47,-112.93 701.3,-107.42 698.56,-110.6"/>
</g>
<!-- core/metadata/get&#45;injectable.ts&#45;&gt;core/metadata/consts.ts -->
<g id="edge19" class="edge">
<title>core/metadata/get&#45;injectable.ts&#45;&gt;core/metadata/consts.ts</title>
<path fill="none" stroke="#000000" stroke-width="2" stroke-opacity="0.200000" d="M659.03,-113.27C666.62,-114.48 674.48,-115.73 681.8,-116.89"/>
<polygon fill="#000000" fill-opacity="0.200000" stroke="#000000" stroke-width="2" stroke-opacity="0.200000" points="681.55,-118.97 687.8,-117.84 682.21,-114.83 681.55,-118.97"/>
</g>
<!-- core/metadata/get&#45;injected&#45;params.ts&#45;&gt;core/metadata/consts.ts -->
<g id="edge20" class="edge">
<title>core/metadata/get&#45;injected&#45;params.ts&#45;&gt;core/metadata/consts.ts</title>
<path fill="none" stroke="#000000" stroke-width="2" stroke-opacity="0.200000" d="M672,-128.67C675.23,-128.15 678.42,-127.65 681.53,-127.15"/>
<polygon fill="#000000" fill-opacity="0.200000" stroke="#000000" stroke-width="2" stroke-opacity="0.200000" points="682.14,-129.18 687.74,-126.17 681.48,-125.04 682.14,-129.18"/>
</g>
<!-- core/metadata/get&#45;module&#45;definition.ts&#45;&gt;core/metadata/consts.ts -->
<g id="edge21" class="edge">
<title>core/metadata/get&#45;module&#45;definition.ts&#45;&gt;core/metadata/consts.ts</title>
<path fill="none" stroke="#000000" stroke-width="2" stroke-opacity="0.200000" d="M660.2,-157.99C665.3,-156.29 670.35,-154.3 675,-152 683.96,-147.56 692.87,-140.92 699.91,-135.01"/>
<polygon fill="#000000" fill-opacity="0.200000" stroke="#000000" stroke-width="2" stroke-opacity="0.200000" points="701.3,-136.58 704.47,-131.07 698.56,-133.4 701.3,-136.58"/>
</g>
<!-- core/metadata/set&#45;injectable.ts&#45;&gt;core/metadata/consts.ts -->
<g id="edge30" class="edge">
<title>core/metadata/set&#45;injectable.ts&#45;&gt;core/metadata/consts.ts</title>
<path fill="none" stroke="#000000" stroke-width="2" stroke-opacity="0.200000" d="M658.77,-190.28C664.54,-188.22 670.16,-185.52 675,-182 690.68,-170.59 701.74,-150.79 707.98,-137.07"/>
<polygon fill="#000000" fill-opacity="0.200000" stroke="#000000" stroke-width="2" stroke-opacity="0.200000" points="710.05,-137.58 710.51,-131.24 706.19,-135.91 710.05,-137.58"/>
</g>
<!-- core/metadata/set&#45;module&#45;definition.ts&#45;&gt;core/metadata/consts.ts -->
<g id="edge31" class="edge">
<title>core/metadata/set&#45;module&#45;definition.ts&#45;&gt;core/metadata/consts.ts</title>
<path fill="none" stroke="#000000" stroke-width="2" stroke-opacity="0.200000" d="M666.26,-217.87C669.4,-216.23 672.36,-214.28 675,-212 697.67,-192.4 707.6,-157.23 711.59,-137.15"/>
<polygon fill="#000000" fill-opacity="0.200000" stroke="#000000" stroke-width="2" stroke-opacity="0.200000" points="713.67,-137.48 712.69,-131.2 709.54,-136.72 713.67,-137.48"/>
</g>
<!-- core/mod.ts -->
<g id="node22" class="node">
<title>core/mod.ts</title>
<g id="a_node22"><a xlink:href="core/mod.ts" xlink:title="mod.ts">
<path fill="#ddfeff" stroke="black" d="M76.5,-40C76.5,-40 34.5,-40 34.5,-40 31.5,-40 28.5,-37 28.5,-34 28.5,-34 28.5,-28 28.5,-28 28.5,-25 31.5,-22 34.5,-22 34.5,-22 76.5,-22 76.5,-22 79.5,-22 82.5,-25 82.5,-28 82.5,-28 82.5,-34 82.5,-34 82.5,-37 79.5,-40 76.5,-40"/>
<text text-anchor="start" x="41.5" y="-28.8" font-family="Helvetica,sans-Serif" font-size="9.00">mod.ts</text>
</a>
</g>
</g>
<!-- core/mod.ts&#45;&gt;core/context/mod.ts -->
<g id="edge32" class="edge">
<title>core/mod.ts&#45;&gt;core/context/mod.ts</title>
<path fill="none" stroke="#000000" stroke-width="2" stroke-opacity="0.200000" d="M82.86,-39.51C89.88,-41.78 97.54,-44.26 104.84,-46.61"/>
<polygon fill="#000000" fill-opacity="0.200000" stroke="#000000" stroke-width="2" stroke-opacity="0.200000" points="104.5,-48.71 110.86,-48.56 105.79,-44.71 104.5,-48.71"/>
</g>
<!-- core/mod.ts&#45;&gt;core/metadata/mod.ts -->
<g id="edge34" class="edge">
<title>core/mod.ts&#45;&gt;core/metadata/mod.ts</title>
<path fill="none" stroke="#000000" stroke-width="2" stroke-opacity="0.200000" d="M82.66,-27.21C113.59,-23.07 166.68,-17 212.5,-17 212.5,-17 212.5,-17 363.5,-17 414.9,-17 435.99,5.15 479,-23 502.9,-38.64 513.76,-72.22 518.23,-91.85"/>
<polygon fill="#000000" fill-opacity="0.200000" stroke="#000000" stroke-width="2" stroke-opacity="0.200000" points="516.22,-92.49 519.51,-97.93 520.33,-91.63 516.22,-92.49"/>
</g>
<!-- core/mod.ts&#45;&gt;core/decorators/mod.ts -->
<g id="edge33" class="edge">
<title>core/mod.ts&#45;&gt;core/decorators/mod.ts</title>
<path fill="none" stroke="#000000" stroke-width="2" stroke-opacity="0.200000" d="M82.74,-30.55C119.88,-30.2 189.83,-30.59 249,-37 276.26,-39.95 306.83,-45.83 329.21,-50.61"/>
<polygon fill="#000000" fill-opacity="0.200000" stroke="#000000" stroke-width="2" stroke-opacity="0.200000" points="328.99,-52.71 335.3,-51.93 329.88,-48.61 328.99,-52.71"/>
</g>
<!-- core/reflection/reflection.ts -->
<g id="node23" class="node">
<title>core/reflection/reflection.ts</title>
<g id="a_node23"><a xlink:href="core/reflection/reflection.ts" xlink:title="reflection.ts">
<path fill="#ccffcc" stroke="black" d="M81,-366C81,-366 30,-366 30,-366 27,-366 24,-363 24,-360 24,-360 24,-354 24,-354 24,-351 27,-348 30,-348 30,-348 81,-348 81,-348 84,-348 87,-351 87,-354 87,-354 87,-360 87,-360 87,-363 84,-366 81,-366"/>
<text text-anchor="start" x="32" y="-354.8" font-family="Helvetica,sans-Serif" font-size="9.00">reflection.ts</text>
</a>
</g>
</g>
<!-- core/types/compiler.ts -->
<g id="node24" class="node">
<title>core/types/compiler.ts</title>
<g id="a_node24"><a xlink:href="core/types/compiler.ts" xlink:title="compiler.ts">
<path fill="#ddfeff" stroke="black" d="M162.5,-126C162.5,-126 113.5,-126 113.5,-126 110.5,-126 107.5,-123 107.5,-120 107.5,-120 107.5,-114 107.5,-114 107.5,-111 110.5,-108 113.5,-108 113.5,-108 162.5,-108 162.5,-108 165.5,-108 168.5,-111 168.5,-114 168.5,-114 168.5,-120 168.5,-120 168.5,-123 165.5,-126 162.5,-126"/>
<text text-anchor="start" x="115.5" y="-114.8" font-family="Helvetica,sans-Serif" font-size="9.00">compiler.ts</text>
</a>
</g>
</g>
<!-- core/types/linker.ts -->
<g id="node25" class="node">
<title>core/types/linker.ts</title>
<g id="a_node25"><a xlink:href="core/types/linker.ts" xlink:title="linker.ts">
<path fill="#ddfeff" stroke="black" d="M159,-156C159,-156 117,-156 117,-156 114,-156 111,-153 111,-150 111,-150 111,-144 111,-144 111,-141 114,-138 117,-138 117,-138 159,-138 159,-138 162,-138 165,-141 165,-144 165,-144 165,-150 165,-150 165,-153 162,-156 159,-156"/>
<text text-anchor="start" x="122" y="-144.8" font-family="Helvetica,sans-Serif" font-size="9.00">linker.ts</text>
</a>
</g>
</g>
<!-- core/types/metadata.ts -->
<g id="node26" class="node">
<title>core/types/metadata.ts</title>
<g id="a_node26"><a xlink:href="core/types/metadata.ts" xlink:title="metadata.ts">
<path fill="#ddfeff" stroke="black" d="M164,-186C164,-186 112,-186 112,-186 109,-186 106,-183 106,-180 106,-180 106,-174 106,-174 106,-171 109,-168 112,-168 112,-168 164,-168 164,-168 167,-168 170,-171 170,-174 170,-174 170,-180 170,-180 170,-183 167,-186 164,-186"/>
<text text-anchor="start" x="114" y="-174.8" font-family="Helvetica,sans-Serif" font-size="9.00">metadata.ts</text>
</a>
</g>
</g>
<!-- core/types/mod.ts -->
<g id="node27" class="node">
<title>core/types/mod.ts</title>
<g id="a_node27"><a xlink:href="core/types/mod.ts" xlink:title="mod.ts">
<path fill="#ddfeff" stroke="black" d="M76.5,-216C76.5,-216 34.5,-216 34.5,-216 31.5,-216 28.5,-213 28.5,-210 28.5,-210 28.5,-204 28.5,-204 28.5,-201 31.5,-198 34.5,-198 34.5,-198 76.5,-198 76.5,-198 79.5,-198 82.5,-201 82.5,-204 82.5,-204 82.5,-210 82.5,-210 82.5,-213 79.5,-216 76.5,-216"/>
<text text-anchor="start" x="41.5" y="-204.8" font-family="Helvetica,sans-Serif" font-size="9.00">mod.ts</text>
</a>
</g>
</g>
<!-- core/types/mod.ts&#45;&gt;core/types/compiler.ts -->
<g id="edge35" class="edge">
<title>core/types/mod.ts&#45;&gt;core/types/compiler.ts</title>
<path fill="none" stroke="#000000" stroke-width="2" stroke-opacity="0.200000" d="M82.59,-202.59C87.33,-200.67 91.78,-197.93 95,-194 112.62,-172.51 86.37,-154.26 103,-132 103.42,-131.43 103.88,-130.88 104.35,-130.36"/>
<polygon fill="#000000" fill-opacity="0.200000" stroke="#000000" stroke-width="2" stroke-opacity="0.200000" points="106.03,-131.68 109.16,-126.14 103.27,-128.52 106.03,-131.68"/>
</g>
<!-- core/types/mod.ts&#45;&gt;core/types/linker.ts -->
<g id="edge36" class="edge">
<title>core/types/mod.ts&#45;&gt;core/types/linker.ts</title>
<path fill="none" stroke="#000000" stroke-width="2" stroke-opacity="0.200000" d="M82.64,-202.13C87.26,-200.25 91.65,-197.63 95,-194 104.94,-183.22 93.55,-173.21 103,-162 103.81,-161.04 104.7,-160.14 105.64,-159.29"/>
<polygon fill="#000000" fill-opacity="0.200000" stroke="#000000" stroke-width="2" stroke-opacity="0.200000" points="107.18,-160.76 110.76,-155.51 104.68,-157.38 107.18,-160.76"/>
</g>
<!-- core/types/mod.ts&#45;&gt;core/types/metadata.ts -->
<g id="edge37" class="edge">
<title>core/types/mod.ts&#45;&gt;core/types/metadata.ts</title>
<path fill="none" stroke="#000000" stroke-width="2" stroke-opacity="0.200000" d="M82.67,-198.4C86.81,-196.97 91.03,-195.47 95,-194 99.77,-192.23 104.81,-190.27 109.68,-188.33"/>
<polygon fill="#000000" fill-opacity="0.200000" stroke="#000000" stroke-width="2" stroke-opacity="0.200000" points="110.51,-190.26 115.3,-186.07 108.95,-186.36 110.51,-190.26"/>
</g>
<!-- core/types/module.ts -->
<g id="node28" class="node">
<title>core/types/module.ts</title>
<g id="a_node28"><a xlink:href="core/types/module.ts" xlink:title="module.ts">
<path fill="#ddfeff" stroke="black" d="M160,-216C160,-216 116,-216 116,-216 113,-216 110,-213 110,-210 110,-210 110,-204 110,-204 110,-201 113,-198 116,-198 116,-198 160,-198 160,-198 163,-198 166,-201 166,-204 166,-204 166,-210 166,-210 166,-213 163,-216 160,-216"/>
<text text-anchor="start" x="118" y="-204.8" font-family="Helvetica,sans-Serif" font-size="9.00">module.ts</text>
</a>
</g>
</g>
<!-- core/types/mod.ts&#45;&gt;core/types/module.ts -->
<g id="edge38" class="edge">
<title>core/types/mod.ts&#45;&gt;core/types/module.ts</title>
<path fill="none" stroke="#000000" stroke-width="2" stroke-opacity="0.200000" d="M82.86,-207C89.46,-207 96.63,-207 103.52,-207"/>
<polygon fill="#000000" fill-opacity="0.200000" stroke="#000000" stroke-width="2" stroke-opacity="0.200000" points="103.75,-209.1 109.75,-207 103.75,-204.9 103.75,-209.1"/>
</g>
<!-- core/types/providers.ts -->
<g id="node29" class="node">
<title>core/types/providers.ts</title>
<g id="a_node29"><a xlink:href="core/types/providers.ts" xlink:title="providers.ts">
<path fill="#ddfeff" stroke="black" d="M164,-246C164,-246 112,-246 112,-246 109,-246 106,-243 106,-240 106,-240 106,-234 106,-234 106,-231 109,-228 112,-228 112,-228 164,-228 164,-228 167,-228 170,-231 170,-234 170,-234 170,-240 170,-240 170,-243 167,-246 164,-246"/>
<text text-anchor="start" x="114" y="-234.8" font-family="Helvetica,sans-Serif" font-size="9.00">providers.ts</text>
</a>
</g>
</g>
<!-- core/types/mod.ts&#45;&gt;core/types/providers.ts -->
<g id="edge39" class="edge">
<title>core/types/mod.ts&#45;&gt;core/types/providers.ts</title>
<path fill="none" stroke="#000000" stroke-width="2" stroke-opacity="0.200000" d="M80.65,-216C88.86,-219.06 98.13,-222.51 106.75,-225.72"/>
<polygon fill="#000000" fill-opacity="0.200000" stroke="#000000" stroke-width="2" stroke-opacity="0.200000" points="106.23,-227.77 112.59,-227.9 107.7,-223.84 106.23,-227.77"/>
</g>
<!-- core/types/reflection.ts -->
<g id="node30" class="node">
<title>core/types/reflection.ts</title>
<g id="a_node30"><a xlink:href="core/types/reflection.ts" xlink:title="reflection.ts">
<path fill="#ddfeff" stroke="black" d="M163.5,-276C163.5,-276 112.5,-276 112.5,-276 109.5,-276 106.5,-273 106.5,-270 106.5,-270 106.5,-264 106.5,-264 106.5,-261 109.5,-258 112.5,-258 112.5,-258 163.5,-258 163.5,-258 166.5,-258 169.5,-261 169.5,-264 169.5,-264 169.5,-270 169.5,-270 169.5,-273 166.5,-276 163.5,-276"/>
<text text-anchor="start" x="114.5" y="-264.8" font-family="Helvetica,sans-Serif" font-size="9.00">reflection.ts</text>
</a>
</g>
</g>
<!-- core/types/mod.ts&#45;&gt;core/types/reflection.ts -->
<g id="edge40" class="edge">
<title>core/types/mod.ts&#45;&gt;core/types/reflection.ts</title>
<path fill="none" stroke="#000000" stroke-width="2" stroke-opacity="0.200000" d="M64.28,-216.27C72.93,-226.14 87.71,-241.72 103,-252 104.61,-253.08 106.3,-254.11 108.05,-255.1"/>
<polygon fill="#000000" fill-opacity="0.200000" stroke="#000000" stroke-width="2" stroke-opacity="0.200000" points="107.09,-256.96 113.38,-257.89 109.03,-253.24 107.09,-256.96"/>
</g>
<!-- core/types/resolver.ts -->
<g id="node31" class="node">
<title>core/types/resolver.ts</title>
<g id="a_node31"><a xlink:href="core/types/resolver.ts" xlink:title="resolver.ts">
<path fill="#ddfeff" stroke="black" d="M161.5,-306C161.5,-306 114.5,-306 114.5,-306 111.5,-306 108.5,-303 108.5,-300 108.5,-300 108.5,-294 108.5,-294 108.5,-291 111.5,-288 114.5,-288 114.5,-288 161.5,-288 161.5,-288 164.5,-288 167.5,-291 167.5,-294 167.5,-294 167.5,-300 167.5,-300 167.5,-303 164.5,-306 161.5,-306"/>
<text text-anchor="start" x="116.5" y="-294.8" font-family="Helvetica,sans-Serif" font-size="9.00">resolver.ts</text>
</a>
</g>
</g>
<!-- core/types/mod.ts&#45;&gt;core/types/resolver.ts -->
<g id="edge41" class="edge">
<title>core/types/mod.ts&#45;&gt;core/types/resolver.ts</title>
<path fill="none" stroke="#000000" stroke-width="2" stroke-opacity="0.200000" d="M60,-216.06C66.37,-231.51 81.26,-263.1 103,-282 104.15,-283 105.38,-283.94 106.66,-284.83"/>
<polygon fill="#000000" fill-opacity="0.200000" stroke="#000000" stroke-width="2" stroke-opacity="0.200000" points="105.6,-286.64 111.81,-287.99 107.79,-283.06 105.6,-286.64"/>
</g>
</g>
</svg>
